<?xml version="1.0" encoding="UTF-8"?>
<svg xmlns="http://www.w3.org/2000/svg" xmlns:xlink="http://www.w3.org/1999/xlink" width="200px" height="200px" viewBox="0 0 200 200" version="1.1">
<g id="surface1">
<path style="fill-rule:evenodd;fill:rgb(32.549021%,69.803923%,65.098041%);fill-opacity:1;stroke-width:0.008;stroke-linecap:butt;stroke-linejoin:miter;stroke:rgb(32.549021%,69.803923%,65.098041%);stroke-opacity:1;stroke-miterlimit:4;" d="M 68.220703 102.260742 C 67.699219 102.243164 67.186523 102.117188 66.714844 101.894531 C 66.246094 101.671875 65.824219 101.352539 65.481445 100.962891 L 30.433594 66.058594 C 30.061523 65.704102 29.765625 65.279297 29.560547 64.807617 C 29.358398 64.335938 29.25293 63.829102 29.25 63.316406 C 29.25 62.80957 29.358398 62.305664 29.560547 61.839844 C 29.762695 61.374023 30.061523 60.952148 30.433594 60.606445 L 35.885742 54.837891 C 36.254883 54.448242 36.703125 54.140625 37.201172 53.935547 C 37.696289 53.733398 38.232422 53.636719 38.768555 53.654297 C 39.27832 53.654297 39.782227 53.759766 40.248047 53.964844 C 40.713867 54.166992 41.132812 54.46582 41.481445 54.837891 L 55.904297 69.260742 C 56.273438 69.612305 56.736328 69.852539 57.237305 69.946289 C 57.738281 70.040039 58.256836 69.984375 58.728516 69.791016 C 59.200195 69.594727 59.604492 69.263672 59.891602 68.841797 C 60.178711 68.419922 60.336914 67.924805 60.345703 67.412109 L 60.345703 12.547852 C 60.366211 11.53125 60.776367 10.561523 61.491211 9.837891 C 62.203125 9.114258 63.166992 8.689453 64.183594 8.654297 L 72.114258 8.654297 C 73.142578 8.750977 74.106445 9.18457 74.859375 9.890625 C 75.612305 10.59375 76.107422 11.53125 76.268555 12.547852 L 76.268555 67.816406 C 76.283203 68.326172 76.444336 68.818359 76.734375 69.237305 C 77.024414 69.65332 77.428711 69.978516 77.900391 70.171875 C 78.369141 70.362305 78.884766 70.415039 79.385742 70.321289 C 79.883789 70.224609 80.34375 69.987305 80.712891 69.635742 L 95.135742 55.212891 C 95.484375 54.84375 95.90625 54.553711 96.37207 54.354492 C 96.837891 54.155273 97.338867 54.052734 97.845703 54.052734 C 98.352539 54.052734 98.853516 54.155273 99.319336 54.354492 C 99.788086 54.553711 100.207031 54.84375 100.558594 55.212891 L 105.981445 60.577148 C 106.353516 60.928711 106.649414 61.356445 106.851562 61.825195 C 107.053711 62.296875 107.15918 62.803711 107.15918 63.316406 C 107.15918 63.829102 107.053711 64.335938 106.851562 64.807617 C 106.649414 65.279297 106.353516 65.704102 105.981445 66.058594 L 70.933594 100.962891 C 70.59668 101.355469 70.180664 101.671875 69.714844 101.897461 C 69.246094 102.120117 68.739258 102.243164 68.220703 102.260742 Z M 79.760742 117.606445 C 80.162109 123.123047 81.808594 128.478516 84.577148 133.268555 L 16.154297 133.268555 C 13.400391 133.268555 10.757812 132.175781 8.80957 130.227539 C 6.864258 128.279297 5.768555 125.639648 5.768555 122.885742 L 5.768555 87.75 C 5.797852 86.727539 6.216797 85.751953 6.943359 85.02832 C 7.666992 84.304688 8.639648 83.885742 9.662109 83.856445 L 17.481445 83.856445 C 18.506836 83.876953 19.485352 84.295898 20.208984 85.019531 C 20.935547 85.746094 21.351562 86.724609 21.375 87.75 L 21.375 113.712891 C 21.395508 114.732422 21.811523 115.705078 22.529297 116.431641 C 23.25 117.155273 24.219727 117.577148 25.239258 117.606445 Z M 88.875 114.720703 C 88.875 109.245117 90.498047 103.889648 93.541992 99.336914 C 96.585938 94.78125 100.910156 91.233398 105.969727 89.135742 C 111.029297 87.041016 116.598633 86.493164 121.96875 87.55957 C 127.341797 88.628906 132.275391 91.265625 136.148438 95.138672 C 140.021484 99.011719 142.658203 103.948242 143.727539 109.318359 C 144.796875 114.691406 144.249023 120.257812 142.151367 125.320312 C 140.056641 130.379883 136.505859 134.704102 131.953125 137.745117 C 127.397461 140.789062 122.044922 142.412109 116.566406 142.412109 C 109.233398 142.420898 102.196289 139.517578 96.999023 134.34375 C 91.801758 129.166992 88.869141 122.141602 88.845703 114.808594 Z M 133.933594 108.260742 L 115.385742 126.922852 C 115.072266 127.268555 114.688477 127.546875 114.260742 127.737305 C 113.833008 127.924805 113.370117 128.021484 112.904297 128.018555 C 112.435547 128.024414 111.972656 127.927734 111.544922 127.740234 C 111.117188 127.549805 110.736328 127.271484 110.422852 126.922852 L 101.422852 117.922852 C 101.241211 117.770508 101.094727 117.583008 100.995117 117.366211 C 100.895508 117.152344 100.842773 116.917969 100.842773 116.683594 C 100.842773 116.446289 100.895508 116.211914 100.995117 115.998047 C 101.094727 115.78418 101.241211 115.59375 101.422852 115.441406 L 103.904297 112.962891 C 104.056641 112.78125 104.244141 112.634766 104.460938 112.532227 C 104.674805 112.432617 104.90918 112.379883 105.143555 112.379883 C 105.380859 112.379883 105.615234 112.432617 105.829102 112.532227 C 106.042969 112.634766 106.233398 112.78125 106.385742 112.962891 L 112.904297 119.481445 L 128.885742 103.5 C 129.035156 103.318359 129.225586 103.171875 129.439453 103.072266 C 129.65625 102.969727 129.887695 102.919922 130.125 102.919922 C 130.362305 102.919922 130.59375 102.969727 130.810547 103.072266 C 131.024414 103.171875 131.214844 103.318359 131.364258 103.5 L 133.845703 105.981445 C 134.015625 106.125 134.15332 106.303711 134.25 106.505859 C 134.34668 106.708008 134.399414 106.927734 134.405273 107.150391 C 134.411133 107.373047 134.367188 107.595703 134.282227 107.800781 C 134.197266 108.008789 134.068359 108.193359 133.904297 108.345703 Z M 133.933594 108.260742 " transform="matrix(1.333333,0,0,1.333333,0,0)"/>
</g>
</svg>
