<svg width="315" height="313" viewBox="0 0 315 313" fill="none" xmlns="http://www.w3.org/2000/svg">
<path d="M167.669 295.232C142.735 300.208 92.1996 310.292 58.3927 286.159C-2.96362 242.361 1.36016 93.4076 78.7176 30.4906C85.4055 25.0511 120.292 -2.23566 168.062 0.741482C250.922 5.90569 324.364 99.1194 309.939 173.824C301.497 217.544 264.566 246.603 249.362 258.566C243.095 263.496 213.555 286.075 167.669 295.232Z" fill="#F4F7FA"/>
<path d="M258.961 19.6062L63.9919 7.71628C59.5015 7.48523 55.4592 12.6509 55.4592 16.9884V281.648C55.4592 287.663 61.2881 288.874 65.7786 288.39L258.961 267.592C262.49 267.212 265.339 263.808 265.339 259.988V26.8527C265.339 23.0319 262.49 19.7879 258.961 19.6062Z" fill="#97A6B7"/>
<path d="M262.168 17.504L66.8136 7.37318C62.3232 7.1403 58.666 10.4944 58.666 14.8657V281.593C58.666 285.964 62.3232 289.111 66.8136 288.624L262.168 267.428C265.697 267.045 268.546 263.614 268.546 259.764V24.807C268.546 20.9564 265.697 17.6869 262.168 17.504Z" fill="#D8DEE8"/>
<path opacity="0.74" d="M66.8135 285.007C64.3914 285.265 62.416 283.559 62.416 281.203V15.0434C62.416 12.6878 64.3914 10.8697 66.8135 10.9904L262.168 20.7183C264.075 20.8133 265.624 22.5854 265.624 24.6687V260.067C265.624 262.151 264.075 264.011 262.168 264.214L66.8135 285.007Z" fill="white"/>
<path d="M249.577 257.901L82.4895 274.872V29.3167L249.577 35.9503V257.901Z" fill="white"/>
<path d="M119.41 147.181V161.33L105.43 161.828V147.544L119.41 147.181ZM120.973 145.578L103.868 146.022V163.447L120.973 162.838V145.578Z" fill="#D8DEE8"/>
<path d="M234.538 158.797L127.271 162.614V145.415L234.538 142.634V158.797Z" fill="#D8DEE8"/>
<path d="M119.41 172.353V186.5L105.43 187.194V172.912L119.41 172.353ZM120.973 170.727L103.868 171.411V188.836L120.973 187.987V170.727Z" fill="#D8DEE8"/>
<path d="M234.538 182.347L127.271 187.674V170.475L234.538 166.184V182.347Z" fill="#D8DEE8"/>
<path d="M119.41 197.525V211.669L105.43 212.56V198.281L119.41 197.525ZM120.973 195.875L103.868 196.8V214.226L120.973 213.135V195.875Z" fill="#D8DEE8"/>
<path d="M234.538 205.897L127.271 212.734V195.535L234.538 189.734V205.897Z" fill="#D8DEE8"/>
<path d="M119.41 222.696V236.838L105.43 237.926V223.649L119.41 222.696ZM120.973 221.024L103.868 222.19V239.615L120.973 238.284V221.024Z" fill="#D8DEE8"/>
<path d="M234.538 229.447L127.271 237.794V220.595L234.538 213.284V229.447Z" fill="#D8DEE8"/>
<path d="M171.888 128.712L103.868 129.866V48.5407L171.888 50.4531V128.712Z" fill="#D8DEE8"/>
<path d="M234.538 62.1496L182.57 60.9971V50.7534L234.538 52.2144V62.1496Z" fill="#D8DEE8"/>
<path d="M234.538 84.2278L182.57 83.7612V78.6393L234.538 79.2603V84.2278Z" fill="#D8DEE8"/>
<path d="M234.538 92.4153L182.57 92.2029V87.081L234.538 87.4477V92.4153Z" fill="#D8DEE8"/>
<path d="M234.538 100.603L182.57 100.645V95.5226L234.538 95.635V100.603Z" fill="#D8DEE8"/>
<path d="M138.997 134.542C142.264 135.668 145.902 133.713 147.121 130.175C148.34 126.636 146.68 122.855 143.412 121.729C143.243 121.671 143.072 121.626 142.901 121.584C143.214 119.676 143.386 117.773 143.417 115.89C143.591 115.865 143.767 115.838 143.943 115.797C147.382 115.003 149.702 111.419 149.124 107.791C148.546 104.164 145.289 101.867 141.85 102.661C141.67 102.703 141.495 102.756 141.322 102.813C140.708 101.061 139.965 99.3691 139.099 97.7521C139.246 97.6361 139.392 97.5171 139.533 97.3865C142.223 94.8853 142.603 90.6329 140.383 87.8886C138.163 85.1444 134.182 84.9474 131.493 87.4487C131.355 87.5769 131.227 87.7123 131.101 87.8493C129.744 86.7118 128.286 85.6853 126.736 84.7788C126.812 84.6042 126.886 84.4278 126.949 84.2446C128.168 80.7062 129.86 76.7912 126.575 75.7166C118.976 73.2306 116.335 76.6287 115.115 80.167C115.052 80.3503 115.002 80.5345 114.954 80.7188C113.175 80.4785 111.394 80.3888 109.624 80.4486C109.609 80.2633 109.592 80.0779 109.563 79.8921C108.985 76.2651 109.791 74.1467 106.285 74.5642C98.6415 75.4745 96.529 79.1404 97.1069 82.7675C97.1372 82.957 97.1788 83.1406 97.2233 83.3226C95.5456 84.0631 93.9182 84.9381 92.3551 85.94C92.2533 85.7887 92.1485 85.6391 92.0325 85.4955C89.8123 82.7512 85.8318 82.5541 83.1421 85.0555C80.4523 87.5568 80.0719 91.809 82.2923 94.5534C82.406 94.694 82.527 94.8232 82.6497 94.9507C81.5135 96.4534 80.4767 98.058 79.5482 99.7536C79.3877 99.6816 79.2254 99.6118 79.0562 99.5536C75.7885 98.4275 72.1511 100.383 70.9318 103.921C69.7126 107.46 71.3732 111.241 74.641 112.367C74.8104 112.425 74.9812 112.47 75.1519 112.512C74.8389 114.42 74.6672 116.322 74.6364 118.206C74.4616 118.231 74.2863 118.258 74.1102 118.299C70.6705 119.093 68.351 122.677 68.9289 126.304C69.5069 129.932 72.7638 132.228 76.2034 131.434C76.3831 131.393 76.5579 131.339 76.7313 131.283C77.3454 133.035 78.0883 134.727 78.9538 136.344C78.8067 136.46 78.6607 136.579 78.5201 136.709C75.8304 139.211 75.45 143.463 77.6701 146.207C79.8905 148.952 86.0578 149.513 88.7474 147.012C88.8852 146.884 86.8261 146.384 86.9516 146.247C88.3092 147.384 89.7673 148.411 91.3166 149.317C91.2408 149.492 91.1673 149.668 91.1042 149.851C89.8849 153.39 91.5457 157.171 94.8134 158.297C98.0812 159.423 101.719 157.467 102.938 153.929C103.001 153.746 103.052 153.561 103.099 153.377C104.878 153.618 106.659 153.707 108.429 153.647C108.444 153.833 108.461 154.018 108.491 154.204C109.068 157.831 112.325 160.128 115.765 159.334C119.204 158.54 121.524 154.955 120.946 151.328C120.916 151.139 120.874 150.955 120.83 150.773C122.508 150.033 124.135 149.158 125.698 148.156C125.8 148.307 125.905 148.457 126.021 148.6C128.241 151.345 132.221 151.542 134.911 149.04C137.601 146.539 137.981 142.287 135.761 139.542C135.647 139.402 135.526 139.272 135.403 139.145C136.54 137.642 137.576 136.038 138.505 134.342C138.665 134.414 138.827 134.484 138.997 134.542ZM101.011 140.309C89.1467 136.221 83.1172 122.493 87.5438 109.646C91.9705 96.7991 105.177 89.699 117.041 93.7872C128.906 97.8753 134.935 111.604 130.509 124.451C126.082 137.297 112.875 144.397 101.011 140.309Z" fill="url(#paint0_linear_7_3615)"/>
<path d="M143.943 115.797C147.382 115.003 149.702 111.419 149.124 107.791C148.546 104.164 145.289 101.867 141.85 102.661C141.67 102.703 141.495 102.757 141.322 102.813C140.708 101.061 139.965 99.3691 139.099 97.7522C139.246 97.6364 139.392 97.5173 139.533 97.3865C142.223 94.8855 145.209 89.3295 142.719 86.8277C137.992 82.0791 134.182 84.9476 131.493 87.4488C131.355 87.577 131.227 87.7123 131.101 87.8492C129.744 86.7117 128.286 85.6853 126.736 84.7789C126.812 84.6043 126.886 84.4279 126.949 84.2447C127.613 82.319 127.418 80.3245 126.58 78.7221C124.406 84.1871 122.273 89.6678 120.195 95.1692C129.936 100.42 134.524 112.798 130.509 124.45C127.106 134.325 118.516 140.797 109.336 141.41C109.076 142.518 108.825 143.631 108.535 144.733C107.749 147.722 106.795 150.676 105.839 153.627C106.704 153.669 107.568 153.676 108.429 153.647C108.444 153.833 108.461 154.018 108.49 154.204C109.068 157.831 111.706 160.615 117.971 159.404C121.437 158.734 121.524 154.956 120.946 151.328C120.916 151.139 120.874 150.955 120.83 150.773C122.508 150.033 124.135 149.158 125.698 148.156C125.8 148.307 125.905 148.457 126.021 148.6C128.241 151.345 134.677 151.748 137.367 149.246C140.057 146.745 137.981 142.287 135.761 139.542C135.647 139.402 135.526 139.273 135.403 139.145C136.54 137.642 137.576 136.038 138.505 134.342C138.665 134.415 138.828 134.484 138.997 134.542C142.265 135.669 145.902 133.713 147.121 130.174C148.341 126.636 146.68 122.855 143.412 121.729C143.243 121.671 143.072 121.626 142.901 121.584C143.214 119.676 143.386 117.773 143.417 115.89C143.591 115.865 143.767 115.838 143.943 115.797Z" fill="url(#paint1_linear_7_3615)"/>
<path d="M147.279 115.713C150.718 114.92 153.036 111.337 152.457 107.71C151.883 104.083 148.626 101.783 145.183 102.58C145.004 102.621 144.829 102.673 144.656 102.732C144.042 100.98 143.298 99.285 142.435 97.6697C142.581 97.5549 142.726 97.4361 142.869 97.3057C145.558 94.803 145.938 90.5503 143.719 87.8063C141.497 85.0626 137.518 84.8658 134.828 87.3649C134.689 87.4946 134.562 87.6306 134.435 87.7665C133.078 86.6298 131.622 85.6018 130.073 84.6969C130.147 84.521 130.221 84.345 130.283 84.163C131.503 80.622 129.842 76.8421 126.575 75.7183C123.307 74.5908 119.67 76.5469 118.45 80.084C118.389 80.2661 118.336 80.4509 118.29 80.6348C116.51 80.3969 114.727 80.3053 112.96 80.3652C112.943 80.1824 112.925 79.9955 112.899 79.8099C112.321 76.1833 109.064 73.8871 105.625 74.6799C102.182 75.4735 99.8639 79.0567 100.442 82.6831C100.473 82.876 100.514 83.0597 100.559 83.2386C98.8796 83.9805 97.2542 84.857 95.6899 85.8589C95.5899 85.7072 95.4823 85.5565 95.3679 85.4146C93.9732 83.6917 91.8859 82.972 89.8645 83.2961C88.6601 83.4831 87.479 84.0375 86.4772 84.9732C83.7884 87.476 83.4083 91.7246 85.6274 94.4726C85.7414 94.6106 85.8617 94.7399 85.986 94.8685C84.8498 96.3709 83.8107 97.9744 82.8831 99.6727C82.7232 99.6003 82.5595 99.5283 82.3902 99.4729C79.1222 98.3455 75.4858 100.302 74.2656 103.839C73.0453 107.376 74.7064 111.16 77.9738 112.283C78.1436 112.342 78.3157 112.39 78.4869 112.429C78.1722 114.338 78.0023 116.239 77.9724 118.124C77.7944 118.148 77.6208 118.176 77.445 118.217C74.0059 119.01 71.6841 122.593 72.2631 126.224C72.8415 129.85 76.0983 132.146 79.5374 131.353C79.7165 131.309 79.8906 131.257 80.0643 131.201C80.6783 132.954 81.4218 134.645 82.289 136.26C82.1397 136.379 81.9947 136.498 81.855 136.627C79.1655 139.126 78.7859 143.379 81.0046 146.123C83.2237 148.871 87.2064 149.067 89.8952 146.565C90.0311 146.435 90.1625 146.303 90.2851 146.163C91.6423 147.304 93.1017 148.328 94.6513 149.236C94.5766 149.408 94.5024 149.584 94.4376 149.771C93.2211 153.307 94.8818 157.087 98.1497 158.215C101.417 159.339 105.054 157.386 106.274 153.845C106.335 153.663 106.384 153.479 106.434 153.295C108.214 153.536 109.993 153.625 111.763 153.564C111.778 153.752 111.795 153.934 111.825 154.12C112.404 157.75 115.661 160.046 119.1 159.253C122.538 158.456 124.86 154.873 124.282 151.246C124.251 151.057 124.21 150.874 124.165 150.691C125.84 149.949 127.47 149.076 129.035 148.074C129.134 148.226 129.238 148.374 129.356 148.519C131.575 151.263 135.558 151.459 138.246 148.956C140.353 147 141.044 143.966 140.179 141.428C139.938 140.72 139.578 140.056 139.097 139.461C138.983 139.319 138.862 139.19 138.738 139.065C139.874 137.559 140.909 135.956 141.841 134.261C142.001 134.333 142.16 134.402 142.33 134.461C145.598 135.585 149.238 133.632 150.454 130.091C151.675 126.554 150.014 122.774 146.746 121.647C146.576 121.588 146.408 121.544 146.237 121.501C146.548 119.592 146.721 117.691 146.751 115.806C146.926 115.782 147.103 115.757 147.279 115.713ZM133.843 124.369C130.841 133.083 123.797 139.152 115.878 140.879C112.119 141.7 108.166 141.543 104.347 140.228C92.4814 136.138 86.4507 122.412 90.8777 109.565C92.8563 103.82 96.5882 99.2287 101.173 96.2694C106.84 92.6038 113.816 91.4419 120.377 93.7053C132.242 97.7915 138.27 111.522 133.843 124.369Z" fill="url(#paint2_linear_7_3615)"/>
<path opacity="0.3" d="M138.247 148.956C135.558 151.459 131.575 151.263 129.357 148.519C129.238 148.373 129.135 148.226 129.035 148.074C127.47 149.076 125.841 149.949 124.165 150.691C124.21 150.874 124.251 151.057 124.282 151.246C124.86 154.873 122.538 158.456 119.1 159.253C115.661 160.046 112.404 157.75 111.825 154.12C111.796 153.934 111.778 153.751 111.764 153.564C109.993 153.625 108.215 153.536 106.434 153.295C106.385 153.479 106.336 153.663 106.274 153.845C105.054 157.386 101.417 159.339 98.1499 158.215C94.8821 157.087 93.2214 153.307 94.4379 149.771C94.5027 149.584 94.5769 149.408 94.6516 149.236C93.1018 148.328 91.6424 147.304 90.2853 146.163C90.1627 146.303 90.0313 146.435 89.8955 146.564C87.2066 149.067 83.224 148.871 81.0049 146.123C78.7861 143.379 79.1658 139.126 81.8552 136.627C81.995 136.498 82.14 136.379 82.2892 136.259C81.422 134.645 80.6785 132.954 80.0645 131.201C79.8908 131.257 79.7167 131.309 79.5376 131.353C76.0986 132.146 72.8418 129.85 72.2633 126.223C71.6844 122.593 74.0063 119.009 77.4452 118.216C77.6211 118.176 77.7947 118.148 77.9727 118.124C78.0026 116.238 78.1724 114.338 78.4872 112.429C78.3159 112.39 78.1438 112.342 77.9741 112.283C74.7066 111.16 73.0455 107.376 74.2658 103.839C75.4861 100.302 79.1224 98.3454 82.3904 99.4728C82.5597 99.5283 82.7235 99.6002 82.8834 99.6726C83.8109 97.9743 84.8501 96.371 85.9862 94.8684C85.8619 94.7398 85.7415 94.6106 85.6276 94.4725C83.4086 91.7245 83.7887 87.4759 86.4775 84.9731C87.4794 84.0374 88.6603 83.483 89.8647 83.296C94.5363 86.5237 99.0644 90.8479 101.174 96.2692C96.5884 99.2285 92.8565 103.82 90.878 109.565C86.4509 122.412 92.4817 136.138 104.348 140.228C108.166 141.543 112.12 141.7 115.878 140.878C121.708 144.213 129.642 145.005 140.179 141.428C141.044 143.966 140.353 147 138.247 148.956Z" fill="white"/>
<path d="M292.734 136.104C298.582 137.836 304.842 134.106 306.717 127.774C308.592 121.441 305.371 114.904 299.523 113.173C299.219 113.083 298.915 113.017 298.61 112.956C299.015 109.569 299.17 106.201 299.077 102.878C299.384 102.821 299.691 102.759 299.998 102.674C306 101.007 309.811 94.5087 308.511 88.159C307.21 81.8092 301.291 78.013 295.289 79.6796C294.975 79.7669 294.671 79.8749 294.37 79.9875C293.151 76.9464 291.71 74.022 290.059 71.2387C290.309 71.0228 290.558 70.8018 290.795 70.5603C295.343 65.9423 295.684 58.4162 291.556 53.7506C287.429 49.0851 280.397 49.0467 275.849 53.6647C275.616 53.9015 275.402 54.1502 275.191 54.4014C272.709 52.5014 270.059 50.805 267.258 49.3272C267.378 49.0136 267.494 48.6968 267.591 48.3689C269.466 42.0365 272.144 35.0036 266.269 33.364C252.68 29.571 248.288 35.7667 246.413 42.0989C246.316 42.4268 246.241 42.7556 246.171 43.0841C243.016 42.7986 239.87 42.7787 236.754 43.0215C236.714 42.6961 236.669 42.3707 236.603 42.0452C235.302 35.6959 236.559 31.899 230.412 32.9069C217.007 35.1048 213.567 41.7313 214.868 48.0809C214.935 48.4127 215.023 48.7332 215.116 49.0507C212.216 50.4864 209.415 52.1551 206.737 54.0427C206.546 53.7841 206.349 53.528 206.134 53.284C202.007 48.6185 194.974 48.5801 190.426 53.1985C185.879 57.8168 185.538 65.3426 189.665 70.008C189.877 70.2471 190.1 70.4659 190.326 70.6807C188.44 73.4182 186.736 76.3271 185.231 79.3886C184.943 79.2739 184.651 79.1636 184.348 79.0739C178.5 77.3426 172.24 81.0722 170.365 87.4046C168.49 93.7367 171.711 100.274 177.559 102.005C177.862 102.095 178.167 102.161 178.471 102.222C178.067 105.609 177.912 108.977 178.004 112.3C177.698 112.357 177.391 112.419 177.084 112.504C171.082 114.171 167.271 120.669 168.571 127.019C169.871 133.369 175.791 137.165 181.793 135.498C182.107 135.411 182.411 135.303 182.712 135.19C183.931 138.232 185.372 141.156 187.023 143.939C186.772 144.155 186.524 144.376 186.287 144.618C181.739 149.236 181.398 156.762 185.525 161.427C189.653 166.093 200.568 166.605 205.116 161.987C205.349 161.75 201.68 161.028 201.891 160.776C204.372 162.676 207.022 164.373 209.824 165.85C209.704 166.164 209.588 166.481 209.491 166.809C207.616 173.141 210.837 179.678 216.685 181.41C222.533 183.141 228.794 179.411 230.669 173.079C230.766 172.751 230.841 172.422 230.911 172.093C234.066 172.379 237.212 172.399 240.328 172.156C240.368 172.482 240.413 172.807 240.479 173.133C241.78 179.482 247.7 183.278 253.701 181.612C259.703 179.945 263.515 173.446 262.214 167.097C262.146 166.765 262.059 166.444 261.966 166.127C264.866 164.691 267.667 163.023 270.345 161.135C270.536 161.394 270.733 161.65 270.948 161.893C275.075 166.559 282.108 166.598 286.655 161.979C291.203 157.361 291.544 149.835 287.417 145.169C287.205 144.931 286.982 144.712 286.756 144.497C288.642 141.759 290.345 138.851 291.851 135.789C292.139 135.904 292.43 136.015 292.734 136.104ZM226.216 149.218C204.983 142.932 193.288 119.198 200.095 96.2068C206.902 73.2158 229.633 59.6741 250.866 65.9603C272.099 72.2468 283.794 95.9805 276.987 118.972C270.18 141.963 247.449 155.504 226.216 149.218Z" fill="url(#paint3_linear_7_3615)"/>
<path d="M299.998 102.674C306 101.007 309.811 94.5087 308.511 88.159C307.211 81.8094 301.291 78.0131 295.289 79.6799C294.975 79.7669 294.671 79.8752 294.37 79.9877C293.151 76.9464 291.71 74.0222 290.059 71.2389C290.31 71.0232 290.558 70.8019 290.795 70.5605C295.343 65.9425 300.176 55.9165 295.592 51.699C286.891 43.6945 280.397 49.0471 275.849 53.665C275.616 53.9018 275.402 54.1503 275.191 54.4015C272.71 52.5016 270.06 50.8054 267.258 49.3276C267.378 49.0139 267.494 48.6973 267.591 48.3693C268.611 44.923 268.113 41.4221 266.513 38.6622C263.103 48.465 259.769 58.2925 256.532 68.1524C274.112 76.6539 283.161 98.1175 276.987 118.972C271.755 136.644 257.113 148.72 240.977 150.514C240.605 152.487 240.249 154.468 239.824 156.432C238.67 161.764 237.217 167.046 235.76 172.322C237.288 172.328 238.812 172.275 240.328 172.156C240.368 172.482 240.413 172.808 240.479 173.133C241.78 179.483 246.646 184.185 257.597 181.564C263.655 180.114 263.515 173.447 262.214 167.097C262.146 166.766 262.059 166.445 261.966 166.127C264.866 164.692 267.667 163.023 270.345 161.136C270.536 161.394 270.733 161.65 270.948 161.894C275.075 166.56 286.454 166.771 291.002 162.153C295.549 157.534 291.544 149.836 287.417 145.17C287.205 144.931 286.982 144.712 286.756 144.497C288.642 141.76 290.345 138.851 291.85 135.79C292.139 135.904 292.431 136.015 292.734 136.104C298.582 137.836 304.842 134.106 306.717 127.774C308.592 121.441 305.371 114.904 299.523 113.173C299.22 113.083 298.915 113.017 298.611 112.956C299.015 109.569 299.17 106.202 299.078 102.879C299.384 102.821 299.691 102.759 299.998 102.674Z" fill="url(#paint4_linear_7_3615)"/>
<path d="M305.395 112.769C305.091 112.679 304.79 112.613 304.484 112.55C304.889 109.166 305.043 105.795 304.951 102.476C305.258 102.417 305.565 102.355 305.869 102.268C311.873 100.605 315.683 94.1041 314.383 87.7553C313.083 81.4065 307.162 77.6066 301.162 79.2741C300.849 79.3645 300.543 79.4714 300.241 79.5827C299.025 76.5409 297.583 73.6198 295.934 70.8329C296.183 70.6171 296.429 70.3969 296.668 70.1563C301.216 65.5387 301.557 58.0104 297.427 53.348C293.302 48.6819 286.271 48.643 281.723 53.2606C281.488 53.4976 281.273 53.7482 281.065 53.9992C278.583 52.0954 275.932 50.4011 273.129 48.9215C273.252 48.608 273.367 48.2938 273.463 47.9662C275.338 41.6326 272.117 35.0971 266.269 33.3659C260.421 31.6348 254.159 35.3632 252.285 41.6928C252.188 42.0243 252.112 42.3534 252.044 42.6789C248.889 42.3952 245.743 42.3741 242.626 42.6171C242.585 42.2917 242.544 41.9664 242.474 41.643C241.175 35.2902 235.253 31.4943 229.253 33.1618C223.253 34.8294 219.439 41.3258 220.739 47.6784C220.808 48.0099 220.898 48.3307 220.988 48.6476C220.846 48.7179 220.703 48.7884 220.561 48.8667C217.813 50.2487 215.155 51.8426 212.612 53.6384C212.417 53.3785 212.222 53.1225 212.005 52.8813C207.88 48.2152 200.846 48.176 196.301 52.7939C191.753 57.4115 191.412 64.9398 195.537 69.606C195.75 69.8428 195.972 70.0604 196.198 70.2782C194.313 73.016 192.608 75.924 191.106 78.9838C190.816 78.8701 190.525 78.7605 190.222 78.6701C184.373 76.939 178.112 80.6674 176.237 87.001C174.362 93.3347 177.583 99.8701 183.431 101.601C183.735 101.692 184.04 101.758 184.342 101.816C183.941 105.205 183.783 108.571 183.878 111.895C183.572 111.953 183.265 112.016 182.957 112.099C176.956 113.766 173.143 120.266 174.443 126.615C175.743 132.964 181.664 136.76 187.664 135.092C187.981 135.006 188.283 134.899 188.585 134.788C189.805 137.826 191.243 140.751 192.896 143.534C192.647 143.75 192.397 143.974 192.158 144.214C187.614 148.832 187.269 156.356 191.399 161.023C195.524 165.689 202.558 165.728 207.107 161.11C207.337 160.873 207.553 160.623 207.764 160.372C210.243 162.271 212.894 163.97 215.698 165.445C215.578 165.759 215.463 166.077 215.362 166.404C213.487 172.738 216.708 179.274 222.557 181.005C228.405 182.736 234.667 179.007 236.542 172.674C236.638 172.346 236.714 172.017 236.785 171.692C239.937 171.975 243.083 171.996 246.2 171.753C246.241 172.079 246.286 172.404 246.352 172.728C247.651 179.076 253.572 182.876 259.573 181.209C265.162 179.657 268.848 173.917 268.282 168.008C268.241 167.57 268.176 167.13 268.087 166.692C268.018 166.361 267.932 166.04 267.838 165.723C270.739 164.287 273.539 162.619 276.218 160.732C276.409 160.988 276.604 161.244 276.82 161.489C280.95 166.156 287.98 166.194 292.528 161.577C297.077 156.959 297.418 149.431 293.288 144.765C293.08 144.528 292.853 144.31 292.627 144.092C294.513 141.355 296.218 138.447 297.724 135.387C298.01 135.501 298.305 135.61 298.608 135.701C304.453 137.432 310.714 133.703 312.589 127.37C314.464 121.036 311.243 114.5 305.395 112.769ZM282.859 118.566C276.841 138.888 258.389 151.827 239.522 150.218C237.042 150.007 234.556 149.545 232.09 148.816C210.856 142.526 199.16 118.795 205.967 95.8008C209.893 82.5416 219.113 72.4287 230.29 67.4462C238.493 63.7852 247.751 62.8923 256.74 65.5551C277.97 71.8441 289.666 95.575 282.859 118.566Z" fill="url(#paint5_linear_7_3615)"/>
<path opacity="0.3" d="M259.573 181.208C253.572 182.876 247.651 179.076 246.352 172.727C246.286 172.404 246.241 172.079 246.2 171.753C243.083 171.996 239.937 171.975 236.785 171.692C236.714 172.017 236.638 172.346 236.542 172.674C234.667 179.007 228.405 182.736 222.557 181.004C216.708 179.273 213.487 172.738 215.362 166.404C215.463 166.077 215.578 165.759 215.698 165.445C212.894 163.97 210.243 162.271 207.764 160.372C207.553 160.622 207.337 160.873 207.107 161.11C202.558 165.728 195.524 165.689 191.399 161.023C187.269 156.356 187.614 148.832 192.158 144.214C192.397 143.974 192.647 143.75 192.896 143.534C191.243 140.751 189.805 137.826 188.585 134.788C188.283 134.899 187.981 135.006 187.664 135.092C181.664 136.76 175.743 132.964 174.443 126.615C173.143 120.266 176.956 113.766 182.957 112.098C183.265 112.016 183.572 111.953 183.878 111.895C183.783 108.571 183.941 105.205 184.342 101.816C184.04 101.758 183.735 101.692 183.431 101.601C177.583 99.8699 174.362 93.3345 176.237 87.0008C178.112 80.6672 184.373 76.9388 190.222 78.6699C190.525 78.7603 190.816 78.8699 191.106 78.9836C192.608 75.9238 194.313 73.0158 196.198 70.278C195.972 70.0602 195.75 69.8426 195.537 69.6058C191.412 64.9397 191.753 57.4114 196.301 52.7937C200.846 48.1758 207.88 48.215 212.005 52.8811C212.222 53.1223 212.417 53.3783 212.612 53.6382C215.155 51.8424 217.813 50.2486 220.561 48.8665C224.924 54.3759 228.524 60.6204 230.29 67.446C219.113 72.4285 209.893 82.5414 205.967 95.8006C199.16 118.795 210.856 142.526 232.09 148.815C234.556 149.545 237.042 150.006 239.521 150.217C246.311 159.303 255.88 165.889 268.282 168.007C268.848 173.917 265.162 179.656 259.573 181.208Z" fill="white"/>
<path d="M292.386 151.764L292.771 146.098C292.771 146.098 292.039 144.834 291.814 141.81C291.59 138.787 292.286 140.027 292.583 141.298C292.666 141.653 292.866 141.962 293.112 142.225C293.73 142.884 294.575 142.142 294.763 141.258L296.236 138.21C296.236 138.21 297.845 140.329 295.893 145.786C295.282 147.495 295.49 151.731 295.49 151.731L292.386 151.764Z" fill="url(#paint6_linear_7_3615)"/>
<path d="M192.856 149.539L191.803 143.925C191.803 143.925 193.319 141.902 192.807 139.696C192.295 137.49 192.639 138.287 192.013 139.642C191.388 140.998 190.499 138.57 189.825 136.369C189.151 134.167 188.507 137.438 188.574 139.409C188.641 141.38 188.636 142.55 189.708 144.058C190.78 145.566 190.201 150.63 190.201 150.63L192.856 149.539Z" fill="url(#paint7_linear_7_3615)"/>
<path d="M263.552 306.908C263.68 305.696 266.592 306.139 268.499 306.453C270.406 306.767 271.199 307.595 271.45 308.335C271.702 309.075 271.356 310.836 269.633 309.971C268.219 309.261 263.438 307.98 263.552 306.908Z" fill="#26264F"/>
<path d="M267.4 302.439L268.446 307.24C268.446 307.24 269.748 308.272 270.229 307.835L270.089 302.373L267.4 302.439Z" fill="url(#paint8_linear_7_3615)"/>
<path d="M257.943 298.998L262.331 301.277L261.417 303.513L256.969 302.028L257.943 298.998Z" fill="url(#paint9_linear_7_3615)"/>
<path d="M257.083 307.859C257.083 307.859 260.043 308.843 261.497 307.153C262.431 306.067 263.276 304.171 263.761 302.956C264.024 302.296 263.732 301.548 263.091 301.241C262.161 300.795 260.889 300.296 260.314 300.57C259.351 301.028 259.985 304.553 259.518 305.429C259.051 306.305 257.042 306.751 257.083 307.859Z" fill="#26264F"/>
<path d="M255.443 228.022C255.383 238.991 256.029 251.748 258.082 265.821C260.223 280.491 263.424 293.37 266.78 304.181C267.16 304.396 267.841 304.715 268.75 304.803C269.814 304.906 270.651 304.64 271.072 304.472C272.194 298.892 272.898 294.165 273.349 290.649C274.541 281.365 275.118 276.608 274.226 270.975C273.388 265.689 272.403 266.03 271.55 260.193C270.792 255.002 271.035 251.065 271.424 245.303C271.691 241.346 272.235 236.015 273.43 229.726C267.434 229.158 261.439 228.589 255.443 228.022Z" fill="url(#paint10_linear_7_3615)"/>
<path opacity="0.3" d="M267.633 300.373C266.697 296.436 269.177 294.835 269.234 289.924C269.304 283.923 265.635 283.495 264.928 276.695C264.359 271.23 266.667 270.918 266.512 264.312C266.347 257.29 263.694 255.689 264.553 251.539C265.031 249.232 266.605 246.148 271.602 243.011C271.913 239.373 272.45 234.878 273.429 229.725C267.434 229.157 261.439 228.589 255.443 228.021C255.383 238.991 256.029 251.748 258.082 265.821C260.223 280.491 263.424 293.37 266.78 304.181C267.16 304.395 267.841 304.715 268.75 304.803C269.232 304.85 269.659 304.816 270.031 304.754C268.97 303.576 268.05 302.13 267.633 300.373Z" fill="url(#paint11_linear_7_3615)"/>
<path d="M240.921 225.103C240.523 227.72 239.824 231.677 238.577 236.401C235.767 247.053 233.147 250.348 232.039 257.362C230.748 265.542 232.555 272.171 233.242 274.693C237.935 291.907 253.425 300.823 257.534 303.028C258.118 301.508 258.702 299.988 259.286 298.468C258.317 296.969 256.893 294.566 255.609 291.423C253.419 286.058 253.455 282.987 252.068 277.755C249.564 268.317 247.097 269.462 246.844 264.726C246.444 257.22 252.656 254.622 259.04 240.756C260.87 236.783 262.01 233.412 262.653 231.336C255.409 229.258 248.165 227.181 240.921 225.103Z" fill="url(#paint12_linear_7_3615)"/>
<path d="M291.558 149.432C293.104 149.289 294.651 149.146 296.197 149.004C297.934 151.835 302.888 160.748 301.024 172.082C300.583 174.768 298.858 183.663 290.791 190.285C285.014 195.026 278.869 196.222 276.065 196.588C275.158 209.874 274.841 218.269 274.958 223.314C274.972 223.922 275.098 229.028 273.968 235.524C273.623 237.504 273.445 238.504 273.134 239.036C268.831 246.418 247.542 238.892 241.853 235.961C240.374 235.199 238.888 234.178 238.336 232.511C237.626 230.369 238.57 228.536 239.014 226.906C240.102 222.905 237.899 219.68 233.598 211.482C231.779 208.016 229.149 202.819 226.121 196.099C222.028 196.997 212.426 198.454 203.466 193.407C190.299 185.992 183.754 167.487 189.035 148.273C190.443 147.972 191.852 147.671 193.26 147.37C193.918 151.213 195.335 156.423 198.598 161.803C200.577 165.067 202.226 167.785 205.293 169.45C210.109 172.065 214.68 170.053 221.241 168.897C231.58 167.077 240.018 168.591 250.269 170.43C261.467 172.439 264.403 174.967 272.758 173.969C276.475 173.525 281.131 172.909 285.139 169.517C293.025 162.844 291.757 151.053 291.558 149.432Z" fill="url(#paint13_linear_7_3615)"/>
<path d="M248.395 161.417C248.395 161.417 247.534 164.08 248.405 165.358C249.275 166.636 252.142 171.505 253.163 171.802C253.744 171.972 255.208 172.296 256.36 172.543C256.966 172.674 257.039 173.526 256.454 173.733C255.263 174.157 253.188 174.524 249.687 174.248C244.626 173.85 240.682 171.646 238.974 170.527C238.731 170.368 238.877 169.993 239.164 170.035L241.432 170.361C243.374 170.64 245.091 169.085 245.006 167.125L244.951 165.848L248.395 161.417Z" fill="url(#paint14_linear_7_3615)"/>
<path d="M245.934 166.728C245.632 166.534 243.107 166.052 242.849 164.659C242.499 162.768 244.323 160.619 244.556 160.269C245.53 158.804 245.763 158.613 246.186 158.382L246.771 158.091C246.771 158.091 246.804 158.081 246.839 158.072C247.206 157.978 248.421 158.051 248.661 158.125C249.43 158.364 249.975 161.633 249.328 166.127C249.345 166.302 249.361 166.479 249.375 166.656C249.413 167.118 245.9 166.887 245.934 166.728Z" fill="url(#paint15_linear_7_3615)"/>
<path d="M244.146 157.624C243.998 158.169 245.385 159.367 245.978 159.885C246.05 159.947 246.256 160.157 246.434 160.484C246.46 160.532 246.482 160.586 246.499 160.656C246.726 161.566 245.23 162.476 245.465 162.895C245.635 163.2 246.622 162.903 246.713 163.161C246.799 163.403 245.963 163.813 246.059 164.103C246.132 164.321 246.637 164.173 246.915 164.524C247.053 164.698 246.997 164.821 247.114 165.327C247.181 165.612 247.282 165.928 247.366 166.106C247.775 166.971 249.117 167.395 249.41 167.09C249.492 167.005 249.436 166.923 249.539 166.622C249.539 166.622 249.634 166.343 249.862 166.032C250.188 165.587 250.902 165.312 251.637 164.878C252.998 164.074 253.417 163.321 253.545 163.066C253.559 163.037 253.572 163.01 253.583 162.986C253.605 162.943 253.624 162.899 253.641 162.855C253.976 161.978 252.944 160.343 252.944 160.343C252.114 159.052 251.016 158.149 250.129 157.562C248.465 157.116 247.089 157.064 246.13 157.105C245.35 157.138 244.263 157.193 244.146 157.624Z" fill="#26264F"/>
<path d="M243.305 162.239C243.305 162.239 244.295 163.606 245.825 162.148L246.514 162.404C246.514 162.404 244.538 166.07 244.17 166.045C243.803 166.02 242.745 165.703 242.745 165.703C242.354 165.507 242.157 165.06 242.278 164.64C242.5 163.874 243.019 162.77 243.305 162.239Z" fill="#26264F"/>
<path d="M246.136 162.622C246.522 162.182 247.084 162.679 247.033 163.289C246.981 163.899 246.333 164.479 245.771 164.307C245.209 164.134 245.618 163.214 246.136 162.622Z" fill="url(#paint16_linear_7_3615)"/>
<path opacity="0.3" d="M267.513 236.424C259.986 238.516 251.675 234.147 249.887 228.834C248.564 224.907 252.191 221.492 250.068 217.397C248.024 213.453 243.753 214.868 241.145 210.843C238.303 206.457 242.232 203.009 239.839 197.223C238.039 192.87 233.301 188.741 228.392 188.416C222.558 188.03 220.014 193.253 215.075 191.824C212.495 191.079 212.664 189.501 209.18 186.666C203.135 181.745 198.749 183.337 193.734 179.818C192.261 178.784 190.643 177.242 189.203 174.843C191.788 182.989 196.767 189.635 203.466 193.408C212.426 198.454 222.028 196.998 226.122 196.099C229.149 202.819 231.779 208.016 233.598 211.483C237.899 219.68 240.103 222.905 239.014 226.906C238.571 228.536 237.627 230.369 238.336 232.511C238.888 234.178 240.374 235.199 241.853 235.961C247.543 238.892 268.831 246.418 273.135 239.036C273.445 238.505 273.623 237.504 273.968 235.524C274.183 234.291 274.351 233.109 274.485 231.997C272.84 233.834 270.576 235.573 267.513 236.424Z" fill="url(#paint17_linear_7_3615)"/>
<path d="M119.886 197.023C119.886 197.023 96.2512 214.452 79.4589 203.898L77.1433 225.67C77.1433 225.67 110.415 234.985 120.079 200.989L119.886 197.023Z" fill="url(#paint18_linear_7_3615)"/>
<path d="M177.285 237.586C181.578 237.202 184.985 233.258 184.895 228.778C184.831 225.593 183.019 222.993 180.44 221.893C180.402 221.876 180.368 221.863 180.329 221.85C179.302 221.432 178.159 221.249 176.961 221.355C176.735 221.377 176.518 221.411 176.296 221.449C175.849 219.228 175.235 217.058 174.459 214.96C174.659 214.845 174.855 214.722 175.047 214.589C178.718 212.019 179.89 206.941 177.669 203.249C176.842 201.876 175.661 200.892 174.314 200.329C172.596 199.6 170.605 199.566 168.742 200.291C168.14 200.525 167.556 200.836 166.994 201.228C166.806 201.361 166.631 201.501 166.457 201.646C165.007 200.043 163.412 198.555 161.694 197.2C161.814 197.003 161.933 196.803 162.04 196.59C164.013 192.706 166.563 188.477 163.498 186.49C163.468 186.469 163.434 186.448 163.4 186.431C163.276 186.358 163.148 186.286 163.02 186.222C154.251 181.937 150.486 185.604 148.419 189.675C148.38 189.752 148.346 189.828 148.312 189.905C148.248 190.041 148.188 190.178 148.133 190.314C146.023 189.726 143.887 189.321 141.734 189.095C141.747 188.869 141.759 188.643 141.755 188.413C141.682 184.742 142.561 182.385 140.514 181.63C140.156 181.498 139.7 181.336 139.137 181.306C139.069 181.302 139.001 181.297 138.933 181.297H138.54C129.259 181.297 126.126 185.271 126.215 189.735C126.22 189.969 126.241 190.229 126.262 190.459C125.115 190.783 123.981 191.171 122.864 191.593C122.86 191.593 122.856 191.598 122.852 191.598C121.867 191.969 120.899 192.382 119.94 192.825C119.842 192.625 119.739 192.433 119.624 192.237C118.797 190.864 117.616 189.884 116.269 189.321C114.854 188.72 113.251 188.592 111.69 188.971C110.748 189.197 109.814 189.611 108.949 190.22C105.278 192.791 104.106 197.869 106.327 201.556C106.442 201.744 106.566 201.923 106.694 202.098C105.253 203.539 103.888 205.095 102.618 206.753C102.456 206.962 102.298 207.171 102.141 207.384C101.957 207.269 101.774 207.158 101.578 207.056C101.429 206.979 101.284 206.911 101.13 206.851C97.451 205.287 93.0086 207.06 91.0219 210.974C88.9544 215.046 90.327 219.897 94.0915 221.807C94.2834 221.905 94.4837 221.986 94.6842 222.067C93.985 224.322 93.4561 226.59 93.1025 228.863C92.8894 228.863 92.6718 228.867 92.4545 228.888C88.1613 229.272 84.755 233.211 84.8445 237.696C84.8872 239.82 85.7057 241.683 87.0144 243.013C88.4682 244.492 90.5189 245.424 92.7784 245.223C92.966 245.206 93.1579 245.247 93.3454 245.247C93.3496 245.247 93.3496 245.247 93.3539 245.247C93.3837 245.247 93.4137 245.13 93.4434 245.125C93.4478 245.142 93.4519 245.103 93.4519 245.12C93.4561 245.124 93.4561 245.102 93.4561 245.106C93.9039 247.302 94.5093 249.429 95.2724 251.51C95.2724 251.514 95.2768 251.516 95.2768 251.52C95.0805 251.635 94.8844 251.752 94.6927 251.884C92.5823 253.363 91.2947 255.642 91.0091 258.013C90.796 259.765 91.1284 261.567 92.0706 263.132C93.793 265.988 98.585 267.842 102.367 266.989C102.371 266.989 102.371 266.989 102.375 266.989C103.249 266.989 104.067 266.687 104.779 266.299C104.856 266.376 104.929 266.482 105.005 266.563C105.014 266.576 105.027 266.589 105.035 266.597C105.602 267.147 106.186 267.689 106.792 268.209C106.822 268.239 106.852 268.264 106.881 268.29C107.261 268.618 107.649 268.938 108.045 269.249C108.041 269.253 108.041 269.258 108.037 269.262C107.921 269.458 107.802 269.663 107.7 269.867C107.291 270.673 107.018 271.509 106.868 272.344C106.651 273.572 106.706 274.804 107.005 275.951C107.227 276.791 107.581 277.588 108.058 278.3C108.344 278.731 108.672 279.127 109.051 279.489C109.546 279.967 110.121 280.436 110.765 280.764C112.185 281.489 113.745 281.485 115.246 281.485C115.25 281.485 115.25 281.485 115.255 281.485C117.723 281.058 120.034 279.379 121.317 276.85C121.428 276.641 121.517 276.335 121.607 276.121C122.69 276.424 123.777 276.795 124.873 276.795H124.877C125.073 276.795 125.269 276.795 125.465 277.221C125.47 277.221 125.47 277.221 125.474 277.221C125.491 277.221 125.512 277.132 125.533 277.132C125.555 277.136 125.576 277.091 125.593 277.096C125.742 277.121 125.896 277.122 126.049 277.144C126.177 277.165 126.309 277.174 126.437 277.191C126.957 277.272 127.428 277.33 127.953 277.385C127.936 277.607 127.878 277.793 127.878 278.014V278.061C127.878 278.115 127.936 278.162 127.939 278.211C127.94 278.252 127.967 278.294 127.971 278.334C127.971 278.377 127.984 278.415 127.988 278.458C128.001 278.654 128.029 278.846 128.055 279.033C128.059 279.093 128.071 279.148 128.079 279.208C128.501 281.868 130.183 283.987 132.459 284.951C132.545 284.989 132.635 285.023 132.729 285.057C132.857 285.104 132.989 285.151 133.126 285.194C133.164 285.211 133.207 285.224 133.25 285.232C134.085 285.471 134.985 285.564 135.918 285.484C136.115 285.466 136.306 285.441 136.494 285.407C136.545 285.398 136.601 285.39 136.652 285.377C140.591 284.639 143.61 280.896 143.524 276.676C143.52 276.518 143.511 276.364 143.499 276.211C143.494 276.164 143.49 276.113 143.486 276.066C143.482 276.04 143.482 276.015 143.477 275.985C145.63 275.371 147.745 274.586 149.8 273.636C149.898 273.836 150 274.036 150.115 274.228C150.167 274.314 150.222 274.399 150.282 274.484C150.474 274.778 150.683 275.055 150.913 275.311C150.917 275.316 150.917 275.316 150.921 275.32C152.064 276.616 153.594 277.409 155.236 277.639C155.977 277.75 156.745 277.741 157.512 277.609C158.638 277.426 159.759 276.978 160.791 276.253C164.291 273.802 165.519 269.07 163.698 265.433C163.651 265.339 163.604 265.246 163.549 265.152C163.506 265.071 163.459 264.99 163.413 264.913C163.297 264.725 163.174 264.546 163.046 264.376C164.67 262.747 166.192 260.982 167.599 259.089C167.782 259.205 167.966 259.315 168.162 259.413C169.121 259.899 170.14 260.147 171.167 260.176C171.666 260.198 172.161 260.164 172.655 260.078C175.124 259.661 177.43 258.028 178.718 255.495C180.781 251.424 179.413 246.577 175.648 244.667C175.456 244.569 175.256 244.483 175.056 244.402C175.755 242.151 176.283 239.879 176.637 237.607C176.851 237.607 177.068 237.603 177.285 237.586ZM103.283 264.828C103.33 264.879 103.377 264.931 103.424 264.982C103.309 264.909 103.249 264.854 103.283 264.828ZM121.279 260.011C107.619 253.074 102.635 235.467 110.143 220.682C113.98 213.127 120.332 207.773 127.452 205.262C132.026 203.654 136.917 203.219 141.657 204.136C143.981 204.579 146.266 205.351 148.462 206.464C149.826 207.159 151.109 207.956 152.294 208.856C152.409 208.937 152.524 209.026 152.639 209.116C153.142 209.504 153.624 209.913 154.093 210.335C154.285 210.51 154.473 210.685 154.66 210.868C154.69 210.894 154.72 210.923 154.75 210.953C154.946 211.141 155.138 211.333 155.325 211.529C155.351 211.554 155.381 211.58 155.402 211.61C155.581 211.793 155.756 211.976 155.926 212.168C155.969 212.215 156.012 212.262 156.054 212.313C156.225 212.501 156.387 212.688 156.545 212.88C156.579 212.914 156.608 212.948 156.634 212.987C156.796 213.175 156.949 213.366 157.099 213.562C157.742 214.377 158.335 215.225 158.876 216.112C159.004 216.312 159.124 216.521 159.243 216.726C159.277 216.781 159.307 216.836 159.337 216.892C159.444 217.071 159.542 217.25 159.635 217.433C159.691 217.527 159.742 217.625 159.793 217.723C159.883 217.894 159.972 218.064 160.053 218.235C160.377 218.883 160.676 219.544 160.948 220.217C161.055 220.473 161.153 220.733 161.251 220.993C161.336 221.228 161.422 221.466 161.503 221.705C161.567 221.88 161.622 222.055 161.677 222.23C161.716 222.349 161.754 222.468 161.788 222.588C161.835 222.728 161.874 222.865 161.912 223.001C161.955 223.142 161.993 223.278 162.027 223.415C162.078 223.577 162.121 223.743 162.159 223.905C162.304 224.468 162.432 225.035 162.543 225.606C162.603 225.921 162.658 226.233 162.709 226.548C162.76 226.851 162.803 227.154 162.841 227.461C162.846 227.499 162.85 227.537 162.854 227.58C162.884 227.797 162.91 228.015 162.931 228.232C162.948 228.386 162.961 228.535 162.973 228.688C162.986 228.812 162.995 228.936 163.003 229.064C163.02 229.251 163.033 229.443 163.042 229.635C163.344 234.972 162.253 240.557 159.597 245.788C157.981 248.973 155.913 251.766 153.535 254.123C153.283 254.37 153.031 254.613 152.776 254.852C152.516 255.091 152.256 255.321 151.991 255.551C151.846 255.675 151.701 255.803 151.552 255.922C151.433 256.024 151.309 256.122 151.185 256.221C150.917 256.438 150.644 256.651 150.367 256.86C147.988 258.655 145.396 260.066 142.689 261.068C142.245 261.23 141.802 261.383 141.354 261.524C140.898 261.669 140.438 261.801 139.973 261.92C139.964 261.925 139.956 261.925 139.947 261.929C139.674 261.997 139.397 262.065 139.12 262.125C138.839 262.193 138.553 262.253 138.268 262.304C136.243 262.701 134.179 262.867 132.12 262.799C131.839 262.79 131.561 262.777 131.284 262.752C131.242 262.752 131.195 262.747 131.152 262.743C127.78 262.509 124.438 261.614 121.279 260.011Z" fill="url(#paint19_linear_7_3615)"/>
<path d="M176.637 237.607C176.284 239.88 175.755 242.152 175.056 244.403C175.256 244.484 175.456 244.569 175.648 244.667C179.413 246.577 180.781 251.425 178.718 255.496C177.43 258.028 175.124 259.661 172.656 260.079C172.161 260.164 171.666 260.198 171.168 260.177C170.14 260.147 169.121 259.9 168.162 259.414C167.966 259.316 167.783 259.205 167.599 259.09C166.192 260.983 164.67 262.748 163.046 264.376C163.174 264.547 163.298 264.726 163.413 264.913C163.46 264.99 163.506 265.071 163.549 265.152C163.605 265.242 163.66 265.336 163.711 265.429C165.783 269.121 167.228 274.459 163.724 276.915C162.662 277.657 161.268 278.053 159.763 278.155C158.288 278.253 156.668 278.07 155.202 277.64C153.522 277.154 152.179 276.352 150.9 275.303V275.09H150.964C150.704 275.09 150.478 274.666 150.282 274.38C150.222 274.295 150.167 274.262 150.116 274.177C150 273.985 149.898 273.811 149.8 273.61C147.745 274.561 145.631 275.358 143.478 275.972C143.482 276.002 143.482 276.034 143.486 276.06C143.49 276.107 143.558 276.161 143.563 276.208C143.576 276.323 143.652 276.437 143.652 276.582V276.676C143.652 281.127 142.846 285.748 138.575 285.748H138.562C136.426 285.868 134.67 285.676 133.25 285.233C133.207 285.224 133.165 285.211 133.126 285.194C132.99 285.152 132.858 285.105 132.73 285.058C132.636 285.023 132.547 284.989 132.461 284.951C129.737 283.834 128.432 281.702 128.083 279.208C128.074 279.149 128.066 279.093 128.061 279.034C128.036 278.812 128.014 278.59 128.002 278.364C128.002 278.356 128.002 278.343 127.998 278.334C127.985 278.219 127.925 278.138 127.921 278.015C127.916 277.784 127.878 277.61 127.878 277.379V277.375C127.452 277.324 126.893 277.256 126.373 277.179C126.245 277.162 126.143 277.141 126.019 277.119C125.866 277.098 125.725 277.17 125.576 277.145C125.542 277.136 125.508 277.222 125.474 277.222C125.469 277.222 125.469 277.222 125.465 277.222C125.269 276.795 125.073 276.795 124.877 276.795H124.873C126.522 273.385 128.245 270.04 129.699 266.557C130.231 265.278 130.858 264.009 131.285 262.721C131.289 262.717 131.289 262.732 131.289 262.728C131.289 262.745 131.745 262.766 132.052 262.779C132.082 262.783 132.107 262.787 132.133 262.787C134.196 262.859 136.243 262.695 138.268 262.302C138.553 262.247 138.835 262.189 139.12 262.124C139.397 262.065 139.674 261.997 139.947 261.929C139.956 261.925 139.964 261.925 139.973 261.92C140.438 261.801 140.898 261.669 141.354 261.524C141.802 261.384 142.245 261.234 142.689 261.068C145.404 260.075 147.997 258.659 150.384 256.86C150.661 256.652 150.925 256.438 151.194 256.221C151.318 256.123 151.437 256.025 151.552 255.922C151.701 255.803 151.846 255.675 151.991 255.552C152.256 255.321 152.516 255.091 152.776 254.852C153.031 254.614 153.283 254.371 153.535 254.123C155.913 251.766 157.981 248.973 159.597 245.789C162.253 240.558 163.344 234.973 163.042 229.635C163.033 229.443 163.02 229.252 163.003 229.064C162.995 228.936 162.986 228.812 162.973 228.689C162.961 228.535 162.948 228.386 162.931 228.233C162.91 228.015 162.884 227.798 162.854 227.58C162.85 227.538 162.846 227.499 162.841 227.461C162.803 227.154 162.76 226.851 162.709 226.549C162.658 226.233 162.603 225.922 162.543 225.606C162.432 225.035 162.304 224.468 162.159 223.905C162.121 223.743 162.078 223.577 162.027 223.415C161.993 223.279 161.955 223.142 161.912 223.002C161.874 222.865 161.835 222.729 161.788 222.588C161.754 222.469 161.716 222.349 161.678 222.23C161.622 222.055 161.567 221.88 161.503 221.706C161.422 221.467 161.336 221.228 161.251 220.993C161.153 220.733 161.055 220.473 160.948 220.218C160.676 219.544 160.377 218.883 160.053 218.235C159.972 218.065 159.883 217.894 159.793 217.724C159.742 217.626 159.691 217.528 159.636 217.434C159.542 217.251 159.444 217.071 159.337 216.892C159.307 216.837 159.277 216.782 159.243 216.726C159.124 216.521 159.004 216.313 158.877 216.112C158.335 215.225 157.742 214.377 157.099 213.563C156.95 213.367 156.796 213.175 156.634 212.987C156.609 212.949 156.579 212.915 156.545 212.881C156.387 212.689 156.225 212.501 156.054 212.314C156.012 212.262 155.969 212.216 155.926 212.169C155.756 211.977 155.581 211.793 155.402 211.61C155.381 211.58 155.351 211.555 155.325 211.529C155.138 211.333 154.946 211.141 154.75 210.954C154.72 210.924 154.69 210.894 154.66 210.868C154.473 210.685 154.285 210.51 154.093 210.335C153.624 209.913 153.142 209.504 152.64 209.116C152.524 209.027 152.409 208.937 152.294 208.856C152.209 208.788 152.128 208.724 152.043 208.664C152.324 208.153 152.605 207.637 152.887 207.125C156.05 201.34 159.265 195.589 162.522 189.855C163.264 191.931 163.166 194.374 162.04 196.591C161.933 196.804 161.814 197.004 161.695 197.2C163.413 198.556 165.007 200.044 166.457 201.647C166.632 201.502 166.806 201.361 166.994 201.229C167.506 200.871 168.047 200.504 168.61 200.163C172.08 198.049 176.442 196.74 180.671 202.363C183.258 205.804 178.718 212.02 175.047 214.59C174.855 214.722 174.659 214.846 174.459 214.961C175.235 217.059 175.849 219.229 176.296 221.45C176.518 221.412 176.736 221.373 176.962 221.356C178.159 221.25 179.302 221.433 180.33 221.851C180.368 221.864 180.402 221.876 180.44 221.893C183.02 222.993 184.831 225.594 184.896 228.779C184.985 233.259 181.579 237.203 177.286 237.587C177.068 237.603 176.851 237.607 176.637 237.607Z" fill="url(#paint20_linear_7_3615)"/>
<path d="M181.331 238.042C185.625 237.662 189.031 233.719 188.937 229.238C188.847 224.753 185.296 221.432 181.007 221.816C180.815 221.829 180.628 221.859 180.44 221.893C180.406 221.897 180.376 221.905 180.342 221.91C180.338 221.888 180.334 221.871 180.33 221.85C179.882 219.65 179.272 217.501 178.505 215.417C178.705 215.302 178.901 215.182 179.093 215.05C182.764 212.479 183.936 207.402 181.715 203.71C181.412 203.211 181.063 202.759 180.671 202.362C179.012 200.661 176.65 199.937 174.314 200.329C173.189 200.517 172.072 200.968 171.04 201.689C170.852 201.817 170.677 201.962 170.498 202.107C169.935 201.484 169.347 200.875 168.742 200.291C168.699 200.244 168.652 200.201 168.61 200.163C167.697 199.284 166.742 198.449 165.74 197.66C165.86 197.464 165.979 197.264 166.086 197.05C168.064 193.158 166.896 188.549 163.498 186.49C163.468 186.469 163.434 186.448 163.4 186.431C163.276 186.358 163.148 186.286 163.021 186.222C159.26 184.312 154.532 186.064 152.465 190.135C152.358 190.349 152.268 190.562 152.179 190.775C150.9 190.417 149.608 190.127 148.312 189.905C147.468 189.76 146.624 189.641 145.78 189.556C145.793 189.329 145.805 189.099 145.801 188.873C145.729 185.352 143.533 182.483 140.515 181.63C140.071 181.498 139.611 181.344 139.138 181.306C139.069 181.302 139.001 181.298 138.933 181.298H138.911C138.788 181.298 138.664 181.357 138.54 181.357C138.319 181.357 138.093 181.396 137.867 181.417C133.578 181.796 130.172 185.757 130.261 190.238C130.266 190.472 130.283 190.711 130.308 190.937C128.155 191.551 126.04 192.339 123.986 193.29C123.888 193.09 123.785 192.894 123.67 192.702C123.431 192.305 123.163 191.943 122.865 191.61C122.86 191.606 122.856 191.602 122.852 191.598C121.185 189.722 118.716 188.908 116.269 189.321C115.357 189.47 114.449 189.794 113.592 190.297C113.392 190.412 113.191 190.54 112.995 190.677C109.324 193.252 108.152 198.325 110.373 202.017C110.488 202.205 110.612 202.384 110.74 202.559C109.116 204.183 107.589 205.948 106.182 207.841C106.003 207.73 105.816 207.619 105.624 207.517C104.665 207.031 103.646 206.783 102.618 206.754C102.124 206.732 101.625 206.766 101.13 206.852C98.6618 207.269 96.3512 208.906 95.068 211.435C93.0003 215.506 94.3731 220.358 98.1332 222.268C98.3293 222.366 98.5297 222.447 98.7301 222.528C98.031 224.779 97.5023 227.051 97.1484 229.323C96.9352 229.323 96.7179 229.328 96.4962 229.349C92.2074 229.728 88.8009 233.672 88.8904 238.157C88.9545 241.337 90.7579 243.934 93.3371 245.034C93.3415 245.034 93.3415 245.121 93.3456 245.121C93.3839 245.138 93.4181 245.247 93.4563 245.247H93.4607C94.4882 245.673 95.6221 245.765 96.8245 245.658C97.0462 245.641 97.2679 245.565 97.4852 245.523C97.9328 247.744 98.551 249.893 99.3227 251.995C99.1266 252.11 98.9305 252.219 98.7386 252.351C95.068 254.926 93.8914 259.905 96.1167 263.597C97.5023 265.895 99.8812 266.99 102.367 266.99C102.371 266.99 102.371 266.99 102.375 266.99C103.254 266.99 104.14 266.896 105.006 266.563C105.014 266.563 105.027 266.559 105.035 266.555C105.637 266.325 106.225 266.056 106.788 265.664C106.979 265.532 107.154 265.408 107.329 265.263C108.779 266.866 110.369 268.362 112.091 269.718C111.968 269.914 111.852 270.127 111.746 270.336C109.678 274.408 111.051 279.259 114.811 281.169C114.952 281.242 115.101 281.31 115.246 281.374C115.25 281.374 115.25 281.378 115.254 281.378C118.934 282.943 123.376 281.169 125.363 277.256C125.401 277.179 125.44 277.102 125.473 277.025C125.537 276.889 125.597 276.753 125.653 276.616C127.763 277.204 129.899 277.614 132.048 277.835C132.035 278.066 132.026 278.291 132.031 278.522C132.094 281.706 133.906 284.213 136.494 285.313C136.545 285.334 136.601 285.356 136.652 285.377C137.253 285.612 137.893 285.748 138.562 285.748H138.575C139.027 286.174 139.491 285.893 139.965 285.85C140.229 285.825 140.489 285.791 140.749 285.739C144.479 285.019 147.329 281.63 147.521 277.673C147.53 277.499 147.489 277.32 147.489 277.136V277.089C147.489 276.863 147.489 276.659 147.489 276.446V276.424C148.768 276.096 149.779 275.734 150.896 275.312C150.9 275.312 150.908 275.203 150.912 275.203C150.925 275.198 150.947 275.516 150.964 275.09H150.968C151.936 275.09 152.895 274.427 153.846 273.988C153.944 274.188 154.046 274.445 154.161 274.637C154.988 276.01 156.165 277.021 157.512 277.583C158.224 277.89 158.983 278.082 159.763 278.142C161.464 278.27 163.25 277.816 164.832 276.708C165.808 276.026 166.606 275.168 167.207 274.204C168.712 271.821 169.032 268.808 167.915 266.259C167.782 265.956 167.629 265.663 167.454 265.373C167.343 265.185 167.215 265.007 167.092 264.832C167.126 264.798 167.164 264.76 167.194 264.726C168.601 263.314 169.927 261.793 171.167 260.177C171.329 259.972 171.487 259.759 171.645 259.55C171.828 259.665 172.012 259.776 172.208 259.874C172.357 259.951 172.502 260.019 172.655 260.079C176.335 261.643 180.773 259.874 182.759 255.956C184.827 251.885 183.454 247.037 179.694 245.127C179.498 245.025 179.302 244.944 179.101 244.863C179.801 242.612 180.325 240.34 180.679 238.067C180.896 238.067 181.114 238.063 181.331 238.042ZM132.12 262.799C132.103 262.799 132.082 262.795 132.065 262.79C132.06 262.79 132.056 262.79 132.052 262.786C129.754 262.338 127.494 261.575 125.32 260.467C111.665 253.535 106.681 235.927 114.189 221.142C117.437 214.743 122.494 209.921 128.291 207.073C132.491 205.006 137.082 203.978 141.657 204.136C145.357 204.26 149.045 205.163 152.507 206.924C152.635 206.988 152.763 207.056 152.887 207.125C166.256 214.185 171.078 231.6 163.638 246.249C158.962 255.457 150.542 261.405 141.555 262.901C138.434 263.421 135.245 263.404 132.12 262.799Z" fill="url(#paint21_linear_7_3615)"/>
<path opacity="0.3" d="M167.207 274.207C166.606 275.171 165.808 276.032 164.832 276.714C163.25 277.823 161.464 278.283 159.763 278.155C158.288 278.253 156.702 278.07 155.235 277.639C153.594 277.409 152.064 276.616 150.921 275.32C149.8 275.747 148.67 276.118 147.523 276.446C147.544 276.672 147.566 276.902 147.57 277.136C147.574 277.32 147.57 277.499 147.561 277.673C147.391 281.651 144.492 285.019 140.749 285.74C140.489 285.791 140.229 285.825 139.964 285.85C139.491 285.893 139.026 286.174 138.574 285.748H138.562C136.426 285.867 134.669 285.676 133.25 285.232C133.207 285.224 133.164 285.211 133.126 285.194C132.99 285.151 132.857 285.104 132.729 285.057C132.636 285.023 132.546 284.989 132.461 284.951C129.737 283.834 128.432 281.702 128.082 279.208C128.074 279.148 128.065 279.093 128.061 279.033C128.036 278.812 127.961 278.59 127.948 278.364C127.94 278.249 127.878 278.168 127.878 278.061V278.014C127.878 277.793 127.878 277.601 127.878 277.379V277.358C127.451 277.302 126.893 277.247 126.373 277.166C126.245 277.149 126.145 277.136 126.017 277.115C125.863 277.094 125.726 277.068 125.577 277.042C125.56 277.038 125.546 277.034 125.525 277.034C125.504 277.034 125.486 277.03 125.469 277.025C125.435 277.102 125.399 277.179 125.36 277.256C123.374 281.169 118.932 282.943 115.253 281.378C113.748 281.634 112.189 281.438 110.764 280.713C110.121 280.385 109.546 279.971 109.051 279.49C108.672 279.127 108.343 278.731 108.058 278.3C107.576 277.588 107.222 276.795 107.005 275.951C106.706 274.804 106.651 273.572 106.868 272.344C107.018 271.513 107.295 270.682 107.7 269.88C107.806 269.671 107.926 269.471 108.045 269.271C108.041 269.266 108.041 269.266 108.037 269.262C107.644 268.955 107.261 268.627 106.881 268.29C106.852 268.265 106.822 268.239 106.792 268.209C106.186 267.668 105.602 267.105 105.035 266.555C105.027 266.559 105.014 266.563 105.005 266.563C104.14 266.896 103.253 266.99 102.375 266.99C102.371 266.99 102.371 266.99 102.367 266.99C98.585 267.842 93.793 265.988 92.0706 263.131C91.1284 261.567 90.796 259.763 91.0091 258.011C91.2905 255.62 92.5781 253.322 94.6927 251.838C94.8844 251.706 95.0763 251.608 95.2724 251.497C95.2724 251.492 95.2768 251.492 95.2768 251.492C94.5137 249.412 93.9081 247.366 93.4606 245.17C93.4561 245.166 93.4561 245.247 93.4561 245.247H93.4519C93.4178 245.247 93.388 245.247 93.3539 245.234C93.3495 245.234 93.3495 245.247 93.3454 245.247C93.3412 245.247 93.3412 245.247 93.3369 245.247C93.1535 245.247 92.9618 245.204 92.7784 245.221C90.519 245.422 88.4683 244.545 87.0144 243.066C85.7056 241.736 84.8872 239.846 84.8445 237.723C84.755 233.238 88.1612 229.286 92.4545 228.902C92.6719 228.881 92.8893 228.87 93.1025 228.87C93.4561 226.597 93.985 224.326 94.6842 222.071C94.4837 221.99 94.2834 221.907 94.0915 221.809C90.327 219.899 88.9544 215.046 91.0218 210.975C93.0086 207.061 97.451 205.288 101.13 206.852C101.625 206.767 102.124 206.733 102.618 206.754C103.888 205.096 105.253 203.539 106.694 202.098C106.566 201.923 106.442 201.744 106.327 201.557C104.106 197.869 105.278 192.791 108.949 190.221C109.814 189.611 110.748 189.198 111.69 188.972C112.304 189.385 112.939 189.828 113.592 190.297C118.49 193.849 124.229 198.986 127.452 205.262C127.75 205.854 128.036 206.46 128.292 207.073C122.494 209.921 117.437 214.743 114.189 221.142C106.681 235.927 111.665 253.535 125.32 260.467C127.495 261.575 129.754 262.338 132.052 262.786C132.082 262.79 132.107 262.79 132.133 262.79C134.196 262.863 136.243 262.697 138.268 262.304C138.553 262.249 138.835 262.189 139.12 262.125C139.397 262.066 139.675 261.997 139.947 261.929C140.463 262.27 141.001 262.599 141.555 262.901C146.956 265.886 154.191 267.067 163.698 265.434C163.703 265.434 163.707 265.434 163.711 265.429C164.841 265.238 166 265.003 167.194 264.726C167.211 264.726 167.224 264.722 167.241 264.717C167.514 265.233 167.74 265.749 167.915 266.261C168.844 268.985 168.422 271.675 167.207 274.207Z" fill="white"/>
<path d="M30.9101 302.604C30.8065 302.572 30.5983 302.509 30.3358 302.541C30.0037 302.583 29.7737 302.754 29.6421 302.855C29.518 302.951 28.4986 303.755 28.5101 304.859C28.5194 305.742 29.1785 305.797 29.8335 307.269C30.3664 308.467 30.0614 308.726 30.5461 309.343C31.3561 310.375 33.1326 310.831 33.8979 310.152C34.2551 309.835 34.3025 309.351 34.3151 309.222C34.4325 308.019 33.1801 307.676 32.9054 306.324C32.6298 304.968 33.6924 304.338 33.1826 303.569C32.9756 303.256 32.287 303.039 30.9101 302.604Z" fill="url(#paint22_linear_7_3615)"/>
<path d="M31.9031 300.53C30.7679 301.575 30.2737 302.736 30.6301 303.33C30.7629 303.551 31.0087 303.686 31.1178 303.746C31.8792 304.164 32.69 303.858 32.844 303.796L34.3068 301.741L31.9031 300.53Z" fill="url(#paint23_linear_7_3615)"/>
<path d="M3.06043 308.493C2.69472 308.365 2.29342 308.444 2.00383 308.702C1.55585 309.1 0.906148 309.723 0.560488 310.262C-0.000590503 311.137 2.13493 311.556 4.34356 312.016C6.55229 312.476 9.28739 313.2 9.20577 312.534C9.12426 311.867 8.4903 310.854 6.35499 309.77C5.78906 309.482 3.99585 308.822 3.06043 308.493Z" fill="url(#paint24_linear_7_3615)"/>
<path d="M3.28106 306.049L2.35718 308.977C2.35718 308.977 2.85907 309.928 4.19168 309.367L5.73012 306.812L3.28106 306.049Z" fill="url(#paint25_linear_7_3615)"/>
<path d="M85.6942 180.204C85.6958 180.212 81.3272 186.496 77.1433 187.728L88.1754 189.521C88.1754 189.521 86.7358 189.036 86.7358 187.014C86.7358 185.754 87.7171 182.725 87.7171 182.725L85.6942 180.204Z" fill="url(#paint26_linear_7_3615)"/>
<path d="M62.0209 244.57C63.1413 248.913 64.6061 255.295 65.7421 263.15C67.7126 276.776 66.5056 279.704 65.8697 280.982C63.5067 285.731 59.5933 286.649 49.7339 292.536C42.699 296.736 37.33 300.664 33.9814 303.248C33.4847 303.168 32.7148 302.983 31.8874 302.507C31.1503 302.083 30.6424 301.586 30.3281 301.226C31.2313 296.846 32.9102 293.94 34.2177 292.142C35.7672 290.012 37.1415 288.962 43.8268 283.636C48.5734 279.854 50.9493 277.958 51.0728 277.729C55.1353 270.183 42.0306 260.17 45.0081 252.324C46.1229 249.386 49.8149 245.901 62.0209 244.57Z" fill="url(#paint27_linear_7_3615)"/>
<path opacity="0.3" d="M34.2177 292.142C35.7672 290.012 37.1415 288.962 43.8268 283.636C48.5734 279.854 50.9493 277.958 51.0728 277.729C55.1353 270.183 42.0305 260.17 45.0081 252.324C46.1229 249.386 49.8149 245.901 62.021 244.57C62.5889 246.772 63.2453 249.501 63.9027 252.677C59.4199 254.982 58.034 257.276 57.7678 259.141C57.1338 263.581 62.6517 266.677 61.3121 270.483C60.2248 273.571 56.0042 273.2 55.1686 276.39C54.3583 279.483 57.9559 281.247 57.2951 283.715C56.2154 287.746 45.9516 285.502 40.5187 290.803C38.7708 292.509 37.045 295.474 36.9187 301.036C35.8142 301.848 34.8314 302.592 33.9814 303.248C33.4847 303.168 32.7148 302.983 31.8874 302.507C31.1503 302.083 30.6424 301.586 30.3281 301.226C31.2313 296.846 32.9102 293.94 34.2177 292.142Z" fill="url(#paint28_linear_7_3615)"/>
<path d="M64.2654 246.145C60.625 248.638 55.5585 252.251 49.7338 256.896C41.348 263.582 32.3292 270.773 23.3167 281.55C18.4263 287.398 12.0458 296.085 6.22372 307.886C5.81283 307.972 5.03752 308.077 4.11665 307.839C3.01412 307.555 2.30824 306.937 2.00366 306.634C0.947166 297.939 2.49768 291.834 4.01207 287.968C7.38199 279.363 11.2673 280.07 17.953 267.529C19.7644 264.131 21.815 259.698 26.1763 252.031C27.8437 249.1 29.114 246.988 31.1851 244.609C34.4896 240.812 38.0124 238.424 40.5406 236.982C48.4489 240.037 56.3572 243.091 64.2654 246.145Z" fill="url(#paint29_linear_7_3615)"/>
<path d="M89.4863 177.982C89.834 176.838 89.0156 175.118 87.6678 174.62C86.6676 174.25 85.7302 174.685 85.0471 175.002C84.7309 175.149 82.5174 176.209 82.4046 178.069C82.3688 178.66 82.616 179.37 83.0016 179.873C83.2003 180.131 83.5257 180.43 84.2151 180.979C84.8269 181.466 84.7918 181.454 84.9765 181.593C85.4199 181.928 86.2439 182.469 87.6078 182.974C87.5757 182.642 87.5568 182.224 87.5937 181.75C87.6078 181.568 87.6707 180.854 87.9126 180.195C88.4035 178.858 89.2145 178.876 89.4863 177.982Z" fill="url(#paint30_linear_7_3615)"/>
<path d="M85.9384 182.577C85.9384 182.577 87.607 183.95 89.674 183.076C91.5245 182.294 90.3245 177.951 88.8015 177.471C88.2934 177.311 87.442 177.467 86.8489 177.88C86.4985 178.124 86.4234 178.331 85.8434 178.718C85.3084 179.075 85.1196 179.068 84.9941 179.279C84.837 179.543 84.8339 180.058 85.6366 181.17C85.148 180.93 84.6654 180.941 84.4087 181.192C84.3678 181.233 84.2686 181.366 84.2422 181.526C84.1461 182.103 84.8043 182.568 85.9384 182.577Z" fill="url(#paint31_linear_7_3615)"/>
<path d="M131.564 184.863L134.159 182.195C134.159 182.195 137.397 180.615 139.76 181.796C142.122 182.977 140.06 182.814 138.846 182.975C137.633 183.135 135.809 184.228 134.634 184.863C133.458 185.498 132.198 186.345 132.198 186.345L131.564 184.863Z" fill="url(#paint32_linear_7_3615)"/>
<path d="M131.332 183.371C132.172 184.421 133.012 185.472 133.852 186.522C131.551 194.364 127.861 198.675 124.873 201.171C115.323 209.152 105.41 204.898 92.7313 214.521C88.8188 217.491 86.3524 220.485 84.3001 222.976C75.0445 234.211 75.6243 241.483 67.6517 246.055C63.2617 248.572 59.0377 248.689 56.2726 248.765C48.3865 248.984 37.6501 245.926 35.9634 239.625C35.6423 238.425 35.7359 237.433 35.793 236.93C37.3375 223.306 53.4656 204.623 59.973 197.312C64.512 192.213 68.4245 188.094 74.4653 187.073C76.9954 186.646 79.04 186.92 83.1292 187.467C90.5653 188.462 92.8841 190.128 99.4124 191.501C103.817 192.428 108.736 193.462 114.187 192.637C117.403 192.15 124.192 190.503 131.332 183.371Z" fill="url(#paint33_linear_7_3615)"/>
<path opacity="0.3" d="M52.8055 241.183C55.2751 235.973 52.4872 232.065 55.641 228.187C59.4527 223.501 65.125 227.244 70.7633 222.752C77.3107 217.537 74.6209 208.538 80.2149 206.449C83.7296 205.136 85.319 208.491 90.6115 207.63C96.337 206.699 96.4502 202.451 102.19 200.542C108.427 198.466 111.352 202.465 119.675 201.959C121.333 201.858 123.13 201.567 125.033 201.033C124.98 201.079 124.926 201.128 124.873 201.171C115.323 209.152 105.41 204.898 92.7314 214.521C88.819 217.491 86.3525 220.485 84.3003 222.976C75.0446 234.211 75.6245 241.483 67.6519 246.055C63.2619 248.572 59.0378 248.689 56.2728 248.765C53.2012 248.85 49.7012 248.432 46.468 247.524C49.9686 245.554 51.8113 243.28 52.8055 241.183Z" fill="url(#paint34_linear_7_3615)"/>
<defs>
<linearGradient id="paint0_linear_7_3615" x1="481.127" y1="213.815" x2="99.5576" y2="114.084" gradientUnits="userSpaceOnUse">
<stop offset="0.1" stop-color="#311944"/>
<stop offset="0.2658" stop-color="#371B47"/>
<stop offset="0.477" stop-color="#462150"/>
<stop offset="0.515" stop-color="#4A2252"/>
<stop offset="0.6806" stop-color="#5C295C"/>
<stop offset="1" stop-color="#893976"/>
</linearGradient>
<linearGradient id="paint1_linear_7_3615" x1="462.675" y1="208.7" x2="81.096" y2="108.967" gradientUnits="userSpaceOnUse">
<stop offset="0.1" stop-color="#311944"/>
<stop offset="0.267" stop-color="#371B47"/>
<stop offset="0.4803" stop-color="#462150"/>
<stop offset="0.7186" stop-color="#612A5F"/>
<stop offset="0.9736" stop-color="#853774"/>
<stop offset="1" stop-color="#893976"/>
</linearGradient>
<linearGradient id="paint2_linear_7_3615" x1="-39.7019" y1="48.7846" x2="244.757" y2="176.329" gradientUnits="userSpaceOnUse">
<stop stop-color="#AA80F9"/>
<stop offset="0.9964" stop-color="#6165D7"/>
</linearGradient>
<linearGradient id="paint3_linear_7_3615" x1="597.903" y1="183.927" x2="194.504" y2="97.276" gradientUnits="userSpaceOnUse">
<stop offset="0.1" stop-color="#311944"/>
<stop offset="0.267" stop-color="#371B47"/>
<stop offset="0.4803" stop-color="#462150"/>
<stop offset="0.7186" stop-color="#612A5F"/>
<stop offset="0.9736" stop-color="#853774"/>
<stop offset="1" stop-color="#893976"/>
</linearGradient>
<linearGradient id="paint4_linear_7_3615" x1="598" y1="183.439" x2="194.611" y2="96.7898" gradientUnits="userSpaceOnUse">
<stop offset="0.1" stop-color="#311944"/>
<stop offset="0.267" stop-color="#371B47"/>
<stop offset="0.4803" stop-color="#462150"/>
<stop offset="0.7186" stop-color="#612A5F"/>
<stop offset="0.9736" stop-color="#853774"/>
<stop offset="1" stop-color="#893976"/>
</linearGradient>
<linearGradient id="paint5_linear_7_3615" x1="191.243" y1="86.1059" x2="494.432" y2="206.304" gradientUnits="userSpaceOnUse">
<stop stop-color="#AA80F9"/>
<stop offset="0.9964" stop-color="#6165D7"/>
</linearGradient>
<linearGradient id="paint6_linear_7_3615" x1="294.842" y1="149.244" x2="296.943" y2="178.367" gradientUnits="userSpaceOnUse">
<stop stop-color="#FFC444"/>
<stop offset="0.9964" stop-color="#F36F56"/>
</linearGradient>
<linearGradient id="paint7_linear_7_3615" x1="191.925" y1="156.615" x2="194.071" y2="186.352" gradientUnits="userSpaceOnUse">
<stop stop-color="#FFC444"/>
<stop offset="0.9964" stop-color="#F36F56"/>
</linearGradient>
<linearGradient id="paint8_linear_7_3615" x1="266.354" y1="293.694" x2="271.352" y2="312.759" gradientUnits="userSpaceOnUse">
<stop stop-color="#FFC444"/>
<stop offset="0.9964" stop-color="#F36F56"/>
</linearGradient>
<linearGradient id="paint9_linear_7_3615" x1="258.145" y1="295.913" x2="263.106" y2="314.837" gradientUnits="userSpaceOnUse">
<stop stop-color="#FFC444"/>
<stop offset="0.9964" stop-color="#F36F56"/>
</linearGradient>
<linearGradient id="paint10_linear_7_3615" x1="284.286" y1="285.309" x2="257.13" y2="250.159" gradientUnits="userSpaceOnUse">
<stop stop-color="#444B8C"/>
<stop offset="0.9964" stop-color="#3E4177"/>
</linearGradient>
<linearGradient id="paint11_linear_7_3615" x1="284.286" y1="285.309" x2="257.13" y2="250.159" gradientUnits="userSpaceOnUse">
<stop stop-color="#444B8C"/>
<stop offset="0.9964" stop-color="#3E4177"/>
</linearGradient>
<linearGradient id="paint12_linear_7_3615" x1="248.59" y1="263.901" x2="205.721" y2="252.864" gradientUnits="userSpaceOnUse">
<stop stop-color="#444B8C"/>
<stop offset="0.9964" stop-color="#3E4177"/>
</linearGradient>
<linearGradient id="paint13_linear_7_3615" x1="236.92" y1="128.147" x2="257.222" y2="229.252" gradientUnits="userSpaceOnUse">
<stop stop-color="#FF9085"/>
<stop offset="1" stop-color="#FB6FBB"/>
</linearGradient>
<linearGradient id="paint14_linear_7_3615" x1="246.68" y1="167.282" x2="250.587" y2="182.021" gradientUnits="userSpaceOnUse">
<stop stop-color="#FFC444"/>
<stop offset="0.9964" stop-color="#F36F56"/>
</linearGradient>
<linearGradient id="paint15_linear_7_3615" x1="296.071" y1="350.557" x2="299.978" y2="365.295" gradientUnits="userSpaceOnUse">
<stop stop-color="#FFC444"/>
<stop offset="0.9964" stop-color="#F36F56"/>
</linearGradient>
<linearGradient id="paint16_linear_7_3615" x1="395.486" y1="444.921" x2="406.692" y2="466.053" gradientUnits="userSpaceOnUse">
<stop stop-color="#FFC444"/>
<stop offset="0.9964" stop-color="#F36F56"/>
</linearGradient>
<linearGradient id="paint17_linear_7_3615" x1="217.511" y1="132.043" x2="237.813" y2="233.149" gradientUnits="userSpaceOnUse">
<stop stop-color="#FF9085"/>
<stop offset="1" stop-color="#FB6FBB"/>
</linearGradient>
<linearGradient id="paint18_linear_7_3615" x1="128.936" y1="220.837" x2="92.194" y2="209.375" gradientUnits="userSpaceOnUse">
<stop stop-color="#FFC444"/>
<stop offset="0.9964" stop-color="#F36F56"/>
</linearGradient>
<linearGradient id="paint19_linear_7_3615" x1="329.946" y1="391.177" x2="141.506" y2="237.27" gradientUnits="userSpaceOnUse">
<stop offset="0.1" stop-color="#311944"/>
<stop offset="0.267" stop-color="#371B47"/>
<stop offset="0.4803" stop-color="#462150"/>
<stop offset="0.7186" stop-color="#612A5F"/>
<stop offset="0.9736" stop-color="#853774"/>
<stop offset="1" stop-color="#893976"/>
</linearGradient>
<linearGradient id="paint20_linear_7_3615" x1="332.862" y1="387.602" x2="144.425" y2="233.697" gradientUnits="userSpaceOnUse">
<stop offset="0.1" stop-color="#311944"/>
<stop offset="0.267" stop-color="#371B47"/>
<stop offset="0.4803" stop-color="#462150"/>
<stop offset="0.7186" stop-color="#612A5F"/>
<stop offset="0.9736" stop-color="#853774"/>
<stop offset="1" stop-color="#893976"/>
</linearGradient>
<linearGradient id="paint21_linear_7_3615" x1="-33.459" y1="125.761" x2="288.996" y2="327.672" gradientUnits="userSpaceOnUse">
<stop stop-color="#AA80F9"/>
<stop offset="0.9964" stop-color="#6165D7"/>
</linearGradient>
<linearGradient id="paint22_linear_7_3615" x1="37.6918" y1="341.357" x2="31.1703" y2="305.61" gradientUnits="userSpaceOnUse">
<stop stop-color="#311944"/>
<stop offset="1" stop-color="#893976"/>
</linearGradient>
<linearGradient id="paint23_linear_7_3615" x1="31.2426" y1="313.612" x2="29.6622" y2="328.942" gradientUnits="userSpaceOnUse">
<stop stop-color="#FFC444"/>
<stop offset="0.9964" stop-color="#F36F56"/>
</linearGradient>
<linearGradient id="paint24_linear_7_3615" x1="8.82183" y1="333.383" x2="4.56874" y2="310.07" gradientUnits="userSpaceOnUse">
<stop stop-color="#311944"/>
<stop offset="1" stop-color="#893976"/>
</linearGradient>
<linearGradient id="paint25_linear_7_3615" x1="3.69725" y1="311.254" x2="2.122" y2="326.534" gradientUnits="userSpaceOnUse">
<stop stop-color="#FFC444"/>
<stop offset="0.9964" stop-color="#F36F56"/>
</linearGradient>
<linearGradient id="paint26_linear_7_3615" x1="79.4056" y1="196.889" x2="85.5487" y2="181.286" gradientUnits="userSpaceOnUse">
<stop stop-color="#FFC444"/>
<stop offset="0.9964" stop-color="#F36F56"/>
</linearGradient>
<linearGradient id="paint27_linear_7_3615" x1="66.2552" y1="297.199" x2="1.03995" y2="218.279" gradientUnits="userSpaceOnUse">
<stop stop-color="#444B8C"/>
<stop offset="0.9964" stop-color="#26264F"/>
</linearGradient>
<linearGradient id="paint28_linear_7_3615" x1="66.2552" y1="297.199" x2="1.03984" y2="218.278" gradientUnits="userSpaceOnUse">
<stop stop-color="#444B8C"/>
<stop offset="0.9964" stop-color="#26264F"/>
</linearGradient>
<linearGradient id="paint29_linear_7_3615" x1="33.3035" y1="276.618" x2="1.64085" y2="233.85" gradientUnits="userSpaceOnUse">
<stop stop-color="#444B8C"/>
<stop offset="0.9964" stop-color="#26264F"/>
</linearGradient>
<linearGradient id="paint30_linear_7_3615" x1="85.5631" y1="189.332" x2="86.0736" y2="175.334" gradientUnits="userSpaceOnUse">
<stop stop-color="#311944"/>
<stop offset="1" stop-color="#893976"/>
</linearGradient>
<linearGradient id="paint31_linear_7_3615" x1="96.3535" y1="182.561" x2="81.0066" y2="178.48" gradientUnits="userSpaceOnUse">
<stop stop-color="#FFC444"/>
<stop offset="0.9964" stop-color="#F36F56"/>
</linearGradient>
<linearGradient id="paint32_linear_7_3615" x1="151.818" y1="171.596" x2="123.7" y2="192.862" gradientUnits="userSpaceOnUse">
<stop stop-color="#FFC444"/>
<stop offset="0.8142" stop-color="#F57F53"/>
<stop offset="0.9964" stop-color="#F36F56"/>
</linearGradient>
<linearGradient id="paint33_linear_7_3615" x1="87.4435" y1="200.271" x2="71.6911" y2="267.061" gradientUnits="userSpaceOnUse">
<stop stop-color="#FFC444"/>
<stop offset="0.9964" stop-color="#F36F56"/>
</linearGradient>
<linearGradient id="paint34_linear_7_3615" x1="91.2037" y1="201.157" x2="75.4513" y2="267.948" gradientUnits="userSpaceOnUse">
<stop stop-color="#FFC444"/>
<stop offset="0.9964" stop-color="#F36F56"/>
</linearGradient>
</defs>
</svg>
