<svg width="16" height="16" viewBox="0 0 16 16" fill="none" xmlns="http://www.w3.org/2000/svg">
<path fill-rule="evenodd" clip-rule="evenodd" d="M11.4225 10.7793L15.133 14.4898C15.309 14.6658 15.309 14.9569 15.133 15.133C15.045 15.2244 14.9265 15.2684 14.8114 15.2684C14.6963 15.2684 14.5778 15.221 14.4898 15.133L10.7793 11.4225C9.63501 12.4179 8.14202 13.0205 6.51023 13.0205C2.92165 13.0205 0 10.0988 0 6.51023C0 2.92165 2.91826 0 6.51023 0C10.0988 0 13.0205 2.91826 13.0205 6.51023C13.0205 8.14202 12.4179 9.63501 11.4225 10.7793ZM6.50685 0.914073C3.4227 0.914073 0.910688 3.4227 0.910688 6.51023C0.910688 9.59777 3.4227 12.1098 6.50685 12.1098C9.59438 12.1098 12.103 9.59438 12.103 6.51023C12.103 3.42608 9.59438 0.914073 6.50685 0.914073Z" fill="#2565C0" fill-opacity="0.437104"/>
</svg>
