<svg width="400" height="400" viewBox="0 0 400 400" fill="none" xmlns="http://www.w3.org/2000/svg">
<g clip-path="url(#clip0_7_3775)">
<rect width="400" height="400" fill="#D06565"/>
<path d="M400 0H0V400H400V0Z" fill="white"/>
<path d="M205.67 336.232C180.735 341.208 130.2 351.292 96.393 327.159C35.0366 283.361 39.3604 134.408 116.718 71.4906C123.406 66.0511 158.292 38.7643 206.062 41.7415C288.922 46.9057 362.364 140.119 347.94 214.824C339.498 258.544 302.566 287.603 287.362 299.566C281.096 304.496 251.556 327.075 205.67 336.232Z" fill="#F4F7FA"/>
<path d="M296.961 60.6062L101.992 48.7163C97.5012 48.4852 93.459 53.6509 93.459 57.9884V322.648C93.459 328.663 99.2879 329.874 103.778 329.39L296.961 308.592C300.49 308.212 303.339 304.808 303.339 300.988V67.8527C303.339 64.0319 300.49 60.7879 296.961 60.6062Z" fill="#97A6B7"/>
<path d="M300.167 58.504L104.813 48.3732C100.323 48.1403 96.6655 51.4944 96.6655 55.8657V322.593C96.6655 326.964 100.323 330.111 104.813 329.624L300.167 308.428C303.696 308.045 306.545 304.614 306.545 300.764V65.807C306.545 61.9564 303.696 58.6869 300.167 58.504Z" fill="#D8DEE8"/>
<path opacity="0.74" d="M104.813 326.007C102.391 326.265 100.416 324.559 100.416 322.203V56.0434C100.416 53.6878 102.391 51.8697 104.813 51.9904L300.167 61.7183C302.075 61.8133 303.623 63.5854 303.623 65.6687V301.067C303.623 303.151 302.075 305.011 300.167 305.214L104.813 326.007Z" fill="white"/>
<path d="M287.577 298.901L120.489 315.872V70.3167L287.577 76.9503V298.901Z" fill="white"/>
<path d="M157.41 188.181V202.33L143.43 202.828V188.544L157.41 188.181ZM158.972 186.578L141.867 187.022V204.447L158.972 203.838V186.578Z" fill="#D8DEE8"/>
<path d="M272.537 199.797L165.271 203.614V186.415L272.537 183.634V199.797Z" fill="#D8DEE8"/>
<path d="M157.41 213.353V227.5L143.43 228.194V213.912L157.41 213.353ZM158.972 211.727L141.867 212.411V229.836L158.972 228.987V211.727Z" fill="#D8DEE8"/>
<path d="M272.537 223.347L165.271 228.674V211.475L272.537 207.184V223.347Z" fill="#D8DEE8"/>
<path d="M157.41 238.525V252.669L143.43 253.56V239.281L157.41 238.525ZM158.972 236.875L141.867 237.8V255.226L158.972 254.135V236.875Z" fill="#D8DEE8"/>
<path d="M272.537 246.897L165.271 253.734V236.535L272.537 230.734V246.897Z" fill="#D8DEE8"/>
<path d="M157.41 263.696V277.838L143.43 278.926V264.649L157.41 263.696ZM158.972 262.024L141.867 263.19V280.615L158.972 279.284V262.024Z" fill="#D8DEE8"/>
<path d="M272.537 270.447L165.271 278.794V261.595L272.537 254.284V270.447Z" fill="#D8DEE8"/>
<path d="M209.887 169.712L141.867 170.866V89.5407L209.887 91.4531V169.712Z" fill="#D8DEE8"/>
<path d="M272.537 103.15L220.57 101.997V91.7534L272.537 93.2144V103.15Z" fill="#D8DEE8"/>
<path d="M272.537 125.228L220.57 124.761V119.639L272.537 120.26V125.228Z" fill="#D8DEE8"/>
<path d="M272.537 133.415L220.57 133.203V128.081L272.537 128.448V133.415Z" fill="#D8DEE8"/>
<path d="M272.537 141.603L220.57 141.645V136.523L272.537 136.635V141.603Z" fill="#D8DEE8"/>
<path d="M176.996 175.542C180.264 176.668 183.902 174.713 185.121 171.175C186.34 167.636 184.679 163.855 181.412 162.729C181.242 162.671 181.071 162.626 180.901 162.584C181.214 160.676 181.385 158.773 181.416 156.89C181.591 156.865 181.766 156.838 181.943 156.797C185.382 156.003 187.702 152.419 187.124 148.791C186.546 145.164 183.289 142.867 179.849 143.661C179.67 143.703 179.495 143.756 179.321 143.813C178.707 142.061 177.964 140.369 177.099 138.752C177.246 138.636 177.392 138.517 177.533 138.386C180.222 135.885 180.603 131.633 178.383 128.889C176.162 126.144 172.182 125.947 169.492 128.449C169.354 128.577 169.227 128.712 169.101 128.849C167.744 127.712 166.285 126.685 164.736 125.779C164.812 125.604 164.886 125.428 164.949 125.245C166.168 121.706 167.86 117.791 164.574 116.717C156.975 114.231 154.334 117.629 153.115 121.167C153.052 121.35 153.001 121.535 152.953 121.719C151.175 121.479 149.394 121.389 147.624 121.449C147.609 121.263 147.592 121.078 147.562 120.892C146.984 117.265 147.79 115.147 144.285 115.564C136.641 116.474 134.529 120.14 135.107 123.767C135.137 123.957 135.179 124.141 135.223 124.323C133.545 125.063 131.918 125.938 130.355 126.94C130.253 126.789 130.148 126.639 130.032 126.495C127.812 123.751 123.832 123.554 121.142 126.055C118.452 128.557 118.072 132.809 120.292 135.553C120.406 135.694 120.527 135.823 120.649 135.951C119.513 137.453 118.476 139.058 117.548 140.754C117.388 140.682 117.225 140.612 117.056 140.554C113.788 139.428 110.151 141.383 108.932 144.921C107.712 148.46 109.373 152.241 112.641 153.367C112.81 153.425 112.981 153.47 113.152 153.512C112.839 155.42 112.667 157.322 112.636 159.206C112.461 159.231 112.286 159.258 112.11 159.299C108.67 160.093 106.351 163.677 106.929 167.304C107.507 170.932 110.764 173.228 114.203 172.434C114.383 172.393 114.558 172.339 114.731 172.283C115.345 174.035 116.088 175.727 116.954 177.344C116.806 177.46 116.66 177.579 116.52 177.709C113.83 180.211 113.45 184.463 115.67 187.207C117.89 189.952 124.058 190.513 126.747 188.012C126.885 187.884 124.826 187.384 124.951 187.247C126.309 188.384 127.767 189.411 129.316 190.317C129.241 190.492 129.167 190.668 129.104 190.851C127.885 194.39 129.545 198.171 132.813 199.297C136.081 200.423 139.718 198.467 140.937 194.929C141.001 194.746 141.051 194.561 141.099 194.377C142.878 194.618 144.659 194.707 146.429 194.647C146.444 194.833 146.461 195.018 146.49 195.204C147.068 198.831 150.325 201.128 153.765 200.334C157.204 199.54 159.524 195.955 158.946 192.328C158.916 192.139 158.874 191.955 158.83 191.773C160.508 191.033 162.135 190.158 163.698 189.156C163.799 189.307 163.904 189.457 164.02 189.6C166.241 192.345 170.221 192.542 172.911 190.04C175.601 187.539 175.981 183.287 173.761 180.542C173.647 180.402 173.526 180.272 173.403 180.145C174.539 178.642 175.576 177.038 176.505 175.342C176.665 175.414 176.827 175.484 176.996 175.542ZM139.011 181.309C127.146 177.221 121.117 163.493 125.544 150.646C129.97 137.799 143.177 130.699 155.041 134.787C166.906 138.875 172.935 152.604 168.508 165.451C164.082 178.297 150.875 185.397 139.011 181.309Z" fill="url(#paint0_linear_7_3775)"/>
<path d="M181.943 156.797C185.382 156.003 187.702 152.419 187.124 148.791C186.546 145.164 183.289 142.867 179.849 143.661C179.67 143.703 179.495 143.757 179.322 143.813C178.707 142.061 177.965 140.369 177.099 138.752C177.246 138.636 177.392 138.517 177.533 138.386C180.222 135.885 183.208 130.33 180.718 127.828C175.992 123.079 172.182 125.948 169.492 128.449C169.354 128.577 169.227 128.712 169.101 128.849C167.744 127.712 166.285 126.685 164.736 125.779C164.812 125.604 164.886 125.428 164.949 125.245C165.612 123.319 165.417 121.324 164.58 119.722C162.406 125.187 160.273 130.668 158.195 136.169C167.936 141.42 172.524 153.798 168.508 165.45C165.106 175.325 156.516 181.797 147.335 182.41C147.076 183.518 146.825 184.631 146.535 185.733C145.749 188.722 144.795 191.676 143.838 194.627C144.704 194.669 145.567 194.676 146.429 194.647C146.443 194.833 146.46 195.018 146.49 195.204C147.068 198.831 149.706 201.615 155.971 200.404C159.437 199.734 159.524 195.956 158.946 192.328C158.915 192.139 158.874 191.955 158.829 191.773C160.507 191.033 162.134 190.158 163.698 189.156C163.799 189.307 163.904 189.457 164.02 189.6C166.241 192.345 172.677 192.748 175.367 190.246C178.057 187.745 175.981 183.287 173.761 180.542C173.647 180.402 173.526 180.273 173.403 180.145C174.539 178.642 175.576 177.038 176.505 175.342C176.665 175.415 176.827 175.484 176.997 175.542C180.264 176.669 183.902 174.713 185.121 171.174C186.34 167.636 184.68 163.855 181.412 162.729C181.242 162.671 181.072 162.626 180.901 162.584C181.214 160.676 181.386 158.773 181.416 156.89C181.591 156.865 181.766 156.838 181.943 156.797Z" fill="url(#paint1_linear_7_3775)"/>
<path d="M185.278 156.713C188.718 155.92 191.036 152.337 190.457 148.71C189.883 145.083 186.625 142.783 183.183 143.58C183.003 143.621 182.829 143.673 182.656 143.732C182.042 141.98 181.298 140.285 180.435 138.67C180.58 138.555 180.726 138.436 180.869 138.306C183.558 135.803 183.938 131.55 181.719 128.806C179.496 126.063 175.518 125.866 172.828 128.365C172.689 128.495 172.561 128.631 172.435 128.767C171.078 127.63 169.622 126.602 168.073 125.697C168.147 125.521 168.221 125.345 168.283 125.163C169.502 121.622 167.842 117.842 164.574 116.718C161.307 115.591 157.67 117.547 156.45 121.084C156.388 121.266 156.335 121.451 156.29 121.635C154.51 121.397 152.726 121.305 150.96 121.365C150.943 121.182 150.925 120.996 150.899 120.81C150.32 117.183 147.064 114.887 143.625 115.68C140.182 116.473 137.864 120.057 138.442 123.683C138.473 123.876 138.514 124.06 138.559 124.239C136.879 124.981 135.254 125.857 133.69 126.859C133.59 126.707 133.482 126.556 133.368 126.415C131.973 124.692 129.886 123.972 127.864 124.296C126.66 124.483 125.479 125.037 124.477 125.973C121.788 128.476 121.408 132.725 123.627 135.473C123.741 135.611 123.861 135.74 123.986 135.869C122.85 137.371 121.81 138.974 120.883 140.673C120.723 140.6 120.559 140.528 120.39 140.473C117.122 139.345 113.486 141.302 112.265 144.839C111.045 148.376 112.706 152.16 115.974 153.283C116.143 153.342 116.315 153.39 116.487 153.429C116.172 155.338 116.002 157.239 115.972 159.124C115.794 159.148 115.621 159.176 115.445 159.217C112.006 160.01 109.684 163.593 110.263 167.224C110.841 170.85 114.098 173.146 117.537 172.353C117.716 172.309 117.89 172.257 118.064 172.201C118.678 173.954 119.422 175.645 120.289 177.26C120.139 177.379 119.994 177.498 119.855 177.627C117.165 180.126 116.786 184.379 119.004 187.123C121.223 189.871 125.206 190.067 127.895 187.565C128.031 187.435 128.162 187.303 128.285 187.163C129.642 188.304 131.101 189.328 132.651 190.236C132.576 190.408 132.502 190.584 132.437 190.771C131.221 194.307 132.882 198.087 136.149 199.215C139.417 200.339 143.054 198.386 144.274 194.845C144.335 194.663 144.384 194.479 144.434 194.295C146.214 194.536 147.993 194.625 149.763 194.564C149.777 194.752 149.795 194.934 149.825 195.12C150.404 198.75 153.66 201.046 157.099 200.253C160.538 199.456 162.86 195.873 162.281 192.246C162.251 192.057 162.21 191.874 162.165 191.691C163.84 190.949 165.47 190.076 167.034 189.074C167.134 189.226 167.237 189.374 167.356 189.519C169.575 192.263 173.558 192.459 176.246 189.956C178.353 188 179.043 184.966 178.178 182.428C177.938 181.72 177.578 181.056 177.097 180.461C176.982 180.319 176.862 180.19 176.738 180.065C177.874 178.559 178.909 176.956 179.841 175.261C180.001 175.333 180.16 175.402 180.33 175.461C183.598 176.585 187.238 174.632 188.454 171.091C189.674 167.554 188.014 163.774 184.746 162.647C184.576 162.588 184.408 162.544 184.237 162.501C184.547 160.592 184.721 158.691 184.751 156.806C184.925 156.782 185.103 156.757 185.278 156.713ZM171.842 165.369C168.841 174.083 161.797 180.152 153.877 181.879C150.119 182.7 146.166 182.543 142.347 181.228C130.481 177.138 124.45 163.412 128.878 150.565C130.856 144.82 134.588 140.229 139.173 137.269C144.84 133.604 151.816 132.442 158.377 134.705C170.242 138.792 176.27 152.522 171.842 165.369Z" fill="url(#paint2_linear_7_3775)"/>
<path opacity="0.3" d="M176.246 189.956C173.557 192.459 169.575 192.263 167.356 189.519C167.237 189.373 167.134 189.226 167.034 189.074C165.47 190.076 163.84 190.949 162.165 191.691C162.21 191.874 162.251 192.057 162.281 192.246C162.86 195.873 160.538 199.456 157.099 200.253C153.66 201.046 150.404 198.75 149.825 195.12C149.795 194.934 149.777 194.751 149.763 194.564C147.993 194.625 146.214 194.536 144.434 194.295C144.384 194.479 144.335 194.663 144.274 194.845C143.054 198.386 139.417 200.339 136.149 199.215C132.882 198.087 131.221 194.307 132.437 190.771C132.502 190.584 132.576 190.408 132.651 190.236C131.101 189.328 129.642 188.304 128.285 187.163C128.162 187.303 128.031 187.435 127.895 187.564C125.206 190.067 121.223 189.871 119.004 187.123C116.786 184.379 117.165 180.126 119.855 177.627C119.994 177.498 120.14 177.379 120.289 177.259C119.422 175.645 118.678 173.954 118.064 172.201C117.89 172.257 117.716 172.309 117.537 172.353C114.098 173.146 110.841 170.85 110.263 167.223C109.684 163.593 112.006 160.009 115.445 159.216C115.621 159.176 115.794 159.148 115.972 159.124C116.002 157.238 116.172 155.338 116.487 153.429C116.315 153.39 116.143 153.342 115.974 153.283C112.706 152.16 111.045 148.376 112.265 144.839C113.486 141.302 117.122 139.345 120.39 140.473C120.559 140.528 120.723 140.6 120.883 140.673C121.81 138.974 122.85 137.371 123.986 135.868C123.861 135.74 123.741 135.611 123.627 135.473C121.408 132.724 121.788 128.476 124.477 125.973C125.479 125.037 126.66 124.483 127.864 124.296C132.536 127.524 137.064 131.848 139.173 137.269C134.588 140.229 130.856 144.82 128.878 150.565C124.45 163.412 130.481 177.138 142.347 181.228C146.166 182.543 150.119 182.7 153.877 181.878C159.707 185.213 167.641 186.005 178.178 182.428C179.043 184.966 178.353 188 176.246 189.956Z" fill="white"/>
<path d="M330.734 177.104C336.582 178.836 342.842 175.106 344.717 168.774C346.592 162.441 343.371 155.904 337.523 154.173C337.219 154.083 336.915 154.017 336.61 153.956C337.015 150.569 337.17 147.201 337.077 143.878C337.384 143.821 337.691 143.759 337.998 143.674C344 142.007 347.811 135.509 346.511 129.159C345.21 122.809 339.291 119.013 333.289 120.68C332.975 120.767 332.671 120.875 332.37 120.988C331.151 117.946 329.71 115.022 328.059 112.239C328.309 112.023 328.558 111.802 328.795 111.56C333.343 106.942 333.684 99.4162 329.556 94.7506C325.429 90.0851 318.397 90.0467 313.849 94.6647C313.616 94.9015 313.402 95.1502 313.191 95.4014C310.709 93.5014 308.059 91.805 305.258 90.3272C305.378 90.0136 305.494 89.6968 305.591 89.3689C307.466 83.0365 310.144 76.0036 304.269 74.364C290.68 70.571 286.288 76.7667 284.413 83.0989C284.316 83.4268 284.241 83.7556 284.171 84.0841C281.016 83.7986 277.87 83.7787 274.754 84.0215C274.714 83.6961 274.669 83.3707 274.603 83.0452C273.302 76.6959 274.559 72.899 268.412 73.9069C255.007 76.1048 251.567 82.7313 252.868 89.0809C252.935 89.4127 253.023 89.7332 253.116 90.0507C250.216 91.4864 247.415 93.1551 244.737 95.0427C244.546 94.7841 244.349 94.528 244.134 94.284C240.007 89.6185 232.974 89.5801 228.426 94.1985C223.879 98.8168 223.538 106.343 227.665 111.008C227.877 111.247 228.1 111.466 228.326 111.681C226.44 114.418 224.736 117.327 223.231 120.389C222.943 120.274 222.651 120.164 222.348 120.074C216.5 118.343 210.24 122.072 208.365 128.405C206.49 134.737 209.711 141.274 215.559 143.005C215.862 143.095 216.167 143.161 216.471 143.222C216.067 146.609 215.912 149.977 216.004 153.3C215.698 153.357 215.391 153.419 215.084 153.504C209.082 155.171 205.271 161.669 206.571 168.019C207.871 174.369 213.791 178.165 219.793 176.498C220.107 176.411 220.411 176.303 220.712 176.19C221.931 179.232 223.372 182.156 225.023 184.939C224.772 185.155 224.524 185.376 224.287 185.618C219.739 190.236 219.398 197.762 223.525 202.427C227.653 207.093 238.568 207.605 243.116 202.987C243.349 202.75 239.68 202.028 239.891 201.776C242.372 203.676 245.022 205.373 247.824 206.85C247.704 207.164 247.588 207.481 247.491 207.809C245.616 214.141 248.837 220.678 254.685 222.41C260.533 224.141 266.794 220.411 268.669 214.079C268.766 213.751 268.841 213.422 268.911 213.093C272.066 213.379 275.212 213.399 278.328 213.156C278.368 213.482 278.413 213.807 278.479 214.133C279.78 220.482 285.7 224.278 291.701 222.612C297.703 220.945 301.515 214.446 300.214 208.097C300.146 207.765 300.059 207.444 299.966 207.127C302.866 205.691 305.667 204.023 308.345 202.135C308.536 202.394 308.733 202.65 308.948 202.893C313.075 207.559 320.108 207.598 324.655 202.979C329.203 198.361 329.544 190.835 325.417 186.169C325.205 185.931 324.982 185.712 324.756 185.497C326.642 182.759 328.345 179.851 329.851 176.789C330.139 176.904 330.43 177.015 330.734 177.104ZM264.216 190.218C242.983 183.932 231.288 160.198 238.095 137.207C244.902 114.216 267.633 100.674 288.866 106.96C310.099 113.247 321.794 136.981 314.987 159.972C308.18 182.963 285.449 196.504 264.216 190.218Z" fill="url(#paint3_linear_7_3775)"/>
<path d="M337.998 143.674C344 142.007 347.811 135.509 346.511 129.159C345.21 122.809 339.291 119.013 333.289 120.68C332.975 120.767 332.671 120.875 332.37 120.988C331.151 117.946 329.71 115.022 328.059 112.239C328.309 112.023 328.557 111.802 328.795 111.56C333.343 106.942 338.175 96.9165 333.591 92.699C324.891 84.6945 318.397 90.0471 313.849 94.665C313.616 94.9018 313.402 95.1503 313.191 95.4015C310.709 93.5016 308.059 91.8054 305.257 90.3276C305.378 90.0139 305.494 89.6973 305.591 89.3693C306.611 85.923 306.113 82.4221 304.512 79.6622C301.103 89.465 297.768 99.2925 294.532 109.152C312.112 117.654 321.161 139.118 314.986 159.972C309.755 177.644 295.113 189.72 278.977 191.514C278.605 193.487 278.248 195.468 277.823 197.432C276.67 202.764 275.217 208.046 273.76 213.322C275.288 213.328 276.812 213.275 278.328 213.156C278.368 213.482 278.413 213.808 278.479 214.133C279.78 220.483 284.645 225.185 295.596 222.564C301.654 221.114 301.515 214.447 300.214 208.097C300.146 207.766 300.058 207.445 299.966 207.127C302.866 205.692 305.667 204.023 308.345 202.136C308.536 202.394 308.732 202.65 308.948 202.894C313.075 207.56 324.454 207.771 329.001 203.153C333.549 198.534 329.544 190.836 325.416 186.17C325.205 185.931 324.981 185.712 324.755 185.497C326.642 182.76 328.345 179.851 329.85 176.79C330.139 176.904 330.43 177.015 330.733 177.104C336.581 178.836 342.842 175.106 344.717 168.774C346.592 162.441 343.371 155.904 337.522 154.173C337.219 154.083 336.915 154.017 336.61 153.956C337.015 150.569 337.169 147.202 337.077 143.879C337.384 143.821 337.69 143.759 337.998 143.674Z" fill="url(#paint4_linear_7_3775)"/>
<path d="M343.395 153.769C343.091 153.679 342.789 153.613 342.484 153.55C342.888 150.166 343.043 146.795 342.951 143.476C343.258 143.417 343.564 143.355 343.869 143.268C349.873 141.605 353.683 135.104 352.383 128.755C351.083 122.407 345.162 118.607 339.161 120.274C338.849 120.364 338.543 120.471 338.241 120.583C337.025 117.541 335.583 114.62 333.934 111.833C334.183 111.617 334.429 111.397 334.667 111.156C339.216 106.539 339.557 99.0104 335.427 94.348C331.301 89.6819 324.271 89.643 319.723 94.2606C319.488 94.4976 319.273 94.7482 319.065 94.9992C316.583 93.0954 313.932 91.4011 311.128 89.9215C311.252 89.608 311.367 89.2938 311.463 88.9662C313.338 82.6326 310.117 76.0971 304.269 74.3659C298.421 72.6348 292.159 76.3632 290.284 82.6928C290.188 83.0243 290.112 83.3534 290.044 83.6789C286.888 83.3952 283.742 83.3741 280.626 83.6171C280.584 83.2917 280.543 82.9664 280.474 82.643C279.174 76.2902 273.253 72.4943 267.253 74.1618C261.252 75.8294 257.439 82.3258 258.739 88.6784C258.807 89.0099 258.897 89.3307 258.987 89.6476C258.845 89.7179 258.703 89.7884 258.56 89.8667C255.813 91.2487 253.155 92.8426 250.612 94.6384C250.417 94.3785 250.221 94.1225 250.005 93.8813C245.88 89.2152 238.845 89.176 234.301 93.7939C229.753 98.4115 229.412 105.94 233.537 110.606C233.75 110.843 233.972 111.06 234.198 111.278C232.312 114.016 230.608 116.924 229.106 119.984C228.815 119.87 228.525 119.76 228.221 119.67C222.373 117.939 216.111 121.667 214.236 128.001C212.361 134.335 215.583 140.87 221.431 142.601C221.735 142.692 222.04 142.758 222.342 142.816C221.941 146.205 221.783 149.571 221.878 152.895C221.571 152.953 221.265 153.016 220.957 153.099C214.956 154.766 211.143 161.266 212.443 167.615C213.743 173.964 219.664 177.76 225.664 176.092C225.981 176.006 226.283 175.899 226.585 175.788C227.805 178.826 229.243 181.751 230.896 184.534C230.647 184.75 230.397 184.974 230.158 185.214C225.613 189.832 225.269 197.356 229.398 202.023C233.524 206.689 240.558 206.728 245.106 202.11C245.337 201.873 245.553 201.623 245.764 201.372C248.243 203.271 250.894 204.97 253.697 206.445C253.578 206.759 253.462 207.077 253.362 207.404C251.487 213.738 254.708 220.274 260.556 222.005C266.405 223.736 272.666 220.007 274.541 213.674C274.637 213.346 274.714 213.017 274.785 212.692C277.937 212.975 281.083 212.996 284.2 212.753C284.241 213.079 284.286 213.404 284.351 213.728C285.651 220.076 291.572 223.876 297.572 222.209C303.161 220.657 306.848 214.917 306.282 209.008C306.241 208.57 306.176 208.13 306.087 207.692C306.018 207.361 305.932 207.04 305.838 206.723C308.739 205.287 311.539 203.619 314.218 201.732C314.409 201.988 314.604 202.244 314.82 202.489C318.95 207.156 325.98 207.194 330.528 202.577C335.077 197.959 335.418 190.431 331.288 185.765C331.079 185.528 330.853 185.31 330.627 185.092C332.513 182.355 334.218 179.447 335.724 176.387C336.01 176.501 336.304 176.61 336.608 176.701C342.452 178.432 348.714 174.703 350.589 168.37C352.464 162.036 349.243 155.5 343.395 153.769ZM320.859 159.566C314.84 179.888 296.388 192.827 277.521 191.218C275.042 191.007 272.556 190.545 270.09 189.816C248.855 183.526 237.16 159.795 243.967 136.801C247.893 123.542 257.113 113.429 268.289 108.446C276.493 104.785 285.75 103.892 294.74 106.555C315.97 112.844 327.666 136.575 320.859 159.566Z" fill="url(#paint5_linear_7_3775)"/>
<path opacity="0.3" d="M297.573 222.208C291.573 223.876 285.652 220.076 284.352 213.727C284.286 213.404 284.241 213.079 284.2 212.753C281.083 212.996 277.937 212.975 274.786 212.692C274.714 213.017 274.638 213.346 274.542 213.674C272.667 220.007 266.405 223.736 260.557 222.004C254.708 220.273 251.488 213.738 253.363 207.404C253.463 207.077 253.578 206.759 253.698 206.445C250.894 204.97 248.244 203.271 245.765 201.372C245.553 201.622 245.337 201.873 245.107 202.11C240.559 206.728 233.524 206.689 229.399 202.023C225.269 197.356 225.614 189.832 230.158 185.214C230.397 184.974 230.647 184.75 230.897 184.534C229.243 181.751 227.805 178.826 226.585 175.788C226.283 175.899 225.981 176.006 225.665 176.092C219.664 177.76 213.743 173.964 212.443 167.615C211.143 161.266 214.957 154.766 220.957 153.098C221.265 153.016 221.572 152.953 221.879 152.895C221.784 149.571 221.941 146.205 222.343 142.816C222.041 142.758 221.735 142.692 221.431 142.601C215.583 140.87 212.362 134.334 214.237 128.001C216.112 121.667 222.374 117.939 228.222 119.67C228.526 119.76 228.816 119.87 229.106 119.984C230.608 116.924 232.313 114.016 234.199 111.278C233.973 111.06 233.751 110.843 233.538 110.606C229.412 105.94 229.753 98.4114 234.301 93.7937C238.846 89.1758 245.88 89.215 250.006 93.8811C250.222 94.1223 250.417 94.3783 250.612 94.6382C253.156 92.8424 255.813 91.2486 258.561 89.8665C262.924 95.3759 266.525 101.62 268.29 108.446C257.114 113.429 247.893 123.541 243.968 136.801C237.16 159.795 248.856 183.526 270.09 189.815C272.556 190.545 275.042 191.006 277.522 191.217C284.311 200.303 293.881 206.889 306.282 209.007C306.848 214.917 303.162 220.656 297.573 222.208Z" fill="white"/>
<path d="M330.386 192.764L330.771 187.098C330.771 187.098 330.038 185.834 329.814 182.81C329.589 179.787 330.286 181.027 330.583 182.298C330.666 182.653 330.866 182.962 331.112 183.225C331.73 183.884 332.575 183.142 332.763 182.258L334.236 179.21C334.236 179.21 335.845 181.329 333.893 186.786C333.282 188.495 333.49 192.731 333.49 192.731L330.386 192.764Z" fill="url(#paint6_linear_7_3775)"/>
<path d="M230.855 190.539L229.803 184.925C229.803 184.925 231.319 182.902 230.807 180.696C230.295 178.49 230.638 179.287 230.013 180.642C229.387 181.998 228.498 179.57 227.824 177.369C227.151 175.167 226.507 178.438 226.574 180.409C226.641 182.38 226.635 183.55 227.708 185.058C228.78 186.566 228.201 191.63 228.201 191.63L230.855 190.539Z" fill="url(#paint7_linear_7_3775)"/>
<path d="M301.551 347.908C301.679 346.696 304.592 347.139 306.499 347.453C308.406 347.767 309.199 348.595 309.45 349.335C309.701 350.075 309.356 351.836 307.633 350.971C306.219 350.261 301.438 348.98 301.551 347.908Z" fill="#26264F"/>
<path d="M305.4 343.439L306.446 348.24C306.446 348.24 307.748 349.272 308.229 348.835L308.088 343.373L305.4 343.439Z" fill="url(#paint8_linear_7_3775)"/>
<path d="M295.943 339.998L300.331 342.277L299.416 344.513L294.968 343.028L295.943 339.998Z" fill="url(#paint9_linear_7_3775)"/>
<path d="M295.083 348.859C295.083 348.859 298.043 349.843 299.496 348.153C300.431 347.067 301.276 345.171 301.76 343.956C302.023 343.296 301.731 342.548 301.091 342.241C300.161 341.795 298.889 341.296 298.313 341.57C297.351 342.028 297.985 345.553 297.518 346.429C297.051 347.305 295.042 347.751 295.083 348.859Z" fill="#26264F"/>
<path d="M293.443 269.022C293.383 279.991 294.029 292.748 296.082 306.821C298.223 321.491 301.423 334.37 304.779 345.181C305.159 345.396 305.841 345.715 306.75 345.803C307.814 345.906 308.651 345.64 309.072 345.472C310.194 339.892 310.897 335.165 311.348 331.649C312.54 322.365 313.118 317.608 312.225 311.975C311.388 306.689 310.402 307.03 309.55 301.193C308.791 296.002 309.035 292.065 309.424 286.303C309.691 282.346 310.235 277.015 311.429 270.726C305.434 270.158 299.439 269.589 293.443 269.022Z" fill="url(#paint10_linear_7_3775)"/>
<path opacity="0.3" d="M305.633 341.373C304.697 337.436 307.177 335.835 307.234 330.924C307.304 324.923 303.635 324.495 302.928 317.695C302.359 312.23 304.667 311.918 304.512 305.312C304.346 298.29 301.694 296.689 302.553 292.539C303.031 290.232 304.605 287.148 309.601 284.011C309.912 280.373 310.45 275.878 311.429 270.725C305.434 270.157 299.439 269.589 293.443 269.021C293.383 279.991 294.029 292.748 296.082 306.821C298.223 321.491 301.423 334.37 304.779 345.181C305.159 345.395 305.841 345.715 306.75 345.803C307.232 345.85 307.659 345.816 308.031 345.754C306.97 344.576 306.05 343.13 305.633 341.373Z" fill="url(#paint11_linear_7_3775)"/>
<path d="M278.92 266.103C278.523 268.72 277.823 272.677 276.577 277.401C273.767 288.053 271.147 291.348 270.039 298.362C268.747 306.542 270.555 313.171 271.242 315.693C275.935 332.907 291.424 341.823 295.534 344.028C296.118 342.508 296.702 340.988 297.286 339.468C296.317 337.969 294.892 335.566 293.609 332.423C291.418 327.058 291.455 323.987 290.067 318.755C287.564 309.317 285.097 310.462 284.844 305.726C284.444 298.22 290.655 295.622 297.04 281.756C298.869 277.783 300.01 274.412 300.653 272.336C293.409 270.258 286.165 268.181 278.92 266.103Z" fill="url(#paint12_linear_7_3775)"/>
<path d="M329.558 190.432C331.104 190.289 332.651 190.146 334.197 190.004C335.934 192.835 340.887 201.748 339.024 213.082C338.583 215.768 336.858 224.663 328.79 231.285C323.014 236.026 316.869 237.222 314.065 237.588C313.158 250.874 312.841 259.269 312.957 264.314C312.971 264.922 313.098 270.028 311.967 276.524C311.623 278.504 311.444 279.504 311.134 280.036C306.831 287.418 285.542 279.892 279.853 276.961C278.374 276.199 276.888 275.178 276.336 273.511C275.626 271.369 276.57 269.536 277.013 267.906C278.102 263.905 275.899 260.68 271.597 252.482C269.779 249.016 267.149 243.819 264.121 237.099C260.028 237.997 250.426 239.454 241.465 234.407C228.299 226.992 221.754 208.487 227.035 189.273C228.443 188.972 229.852 188.671 231.26 188.37C231.918 192.213 233.335 197.423 236.597 202.803C238.577 206.067 240.225 208.785 243.293 210.45C248.108 213.065 252.68 211.053 259.241 209.897C269.579 208.077 278.018 209.591 288.268 211.43C299.467 213.439 302.402 215.967 310.758 214.969C314.474 214.525 319.131 213.909 323.139 210.517C331.024 203.844 329.757 192.053 329.558 190.432Z" fill="url(#paint13_linear_7_3775)"/>
<path d="M286.394 202.417C286.394 202.417 285.534 205.08 286.405 206.358C287.275 207.636 290.142 212.505 291.162 212.802C291.744 212.972 293.208 213.296 294.359 213.543C294.966 213.674 295.039 214.526 294.454 214.733C293.263 215.157 291.188 215.524 287.686 215.248C282.625 214.85 278.682 212.646 276.974 211.527C276.731 211.368 276.877 210.993 277.164 211.035L279.431 211.361C281.374 211.64 283.091 210.085 283.006 208.125L282.95 206.848L286.394 202.417Z" fill="url(#paint14_linear_7_3775)"/>
<path d="M283.934 207.728C283.632 207.534 281.107 207.052 280.849 205.659C280.499 203.768 282.323 201.619 282.556 201.269C283.53 199.804 283.763 199.613 284.186 199.382L284.771 199.091C284.771 199.091 284.804 199.081 284.839 199.072C285.206 198.978 286.421 199.051 286.661 199.125C287.43 199.364 287.975 202.633 287.328 207.127C287.345 207.302 287.361 207.479 287.375 207.656C287.413 208.118 283.9 207.887 283.934 207.728Z" fill="url(#paint15_linear_7_3775)"/>
<path d="M282.146 198.624C281.998 199.169 283.385 200.367 283.978 200.885C284.05 200.947 284.257 201.157 284.434 201.484C284.46 201.532 284.482 201.586 284.499 201.656C284.726 202.566 283.23 203.476 283.465 203.895C283.635 204.2 284.623 203.903 284.713 204.161C284.799 204.403 283.964 204.813 284.06 205.103C284.132 205.321 284.637 205.173 284.915 205.524C285.053 205.698 284.997 205.821 285.115 206.327C285.181 206.612 285.282 206.928 285.366 207.106C285.775 207.971 287.117 208.395 287.411 208.09C287.493 208.005 287.436 207.923 287.539 207.622C287.539 207.622 287.634 207.343 287.863 207.032C288.188 206.587 288.903 206.312 289.637 205.878C290.998 205.074 291.417 204.321 291.545 204.066C291.559 204.037 291.572 204.01 291.583 203.986C291.605 203.943 291.624 203.899 291.641 203.855C291.977 202.978 290.944 201.343 290.944 201.343C290.114 200.052 289.016 199.149 288.129 198.562C286.465 198.116 285.089 198.064 284.131 198.105C283.35 198.138 282.263 198.193 282.146 198.624Z" fill="#26264F"/>
<path d="M281.305 203.239C281.305 203.239 282.295 204.606 283.825 203.148L284.514 203.404C284.514 203.404 282.538 207.07 282.17 207.045C281.803 207.02 280.745 206.703 280.745 206.703C280.354 206.507 280.157 206.06 280.278 205.64C280.5 204.874 281.019 203.77 281.305 203.239Z" fill="#26264F"/>
<path d="M284.136 203.622C284.522 203.182 285.084 203.679 285.033 204.289C284.981 204.899 284.333 205.479 283.771 205.307C283.209 205.134 283.618 204.214 284.136 203.622Z" fill="url(#paint16_linear_7_3775)"/>
<path opacity="0.3" d="M305.512 277.424C297.986 279.516 289.675 275.147 287.886 269.834C286.564 265.907 290.191 262.492 288.068 258.397C286.024 254.453 281.752 255.868 279.145 251.843C276.303 247.457 280.232 244.009 277.839 238.223C276.039 233.87 271.301 229.741 266.392 229.416C260.558 229.03 258.014 234.253 253.075 232.824C250.495 232.079 250.663 230.501 247.18 227.666C241.135 222.745 236.749 224.337 231.734 220.818C230.261 219.784 228.642 218.242 227.203 215.843C229.788 223.989 234.767 230.635 241.466 234.408C250.426 239.454 260.028 237.998 264.121 237.099C267.149 243.819 269.779 249.016 271.598 252.483C275.899 260.68 278.102 263.905 277.014 267.906C276.57 269.536 275.626 271.369 276.336 273.511C276.888 275.178 278.374 276.199 279.853 276.961C285.542 279.892 306.831 287.418 311.134 280.036C311.445 279.505 311.623 278.504 311.968 276.524C312.182 275.291 312.351 274.109 312.484 272.997C310.84 274.834 308.576 276.573 305.512 277.424Z" fill="url(#paint17_linear_7_3775)"/>
<path d="M157.885 238.023C157.885 238.023 134.251 255.452 117.459 244.898L115.143 266.67C115.143 266.67 148.414 275.985 158.079 241.989L157.885 238.023Z" fill="url(#paint18_linear_7_3775)"/>
<path d="M215.285 278.586C219.578 278.202 222.985 274.258 222.895 269.778C222.831 266.593 221.019 263.993 218.44 262.893C218.402 262.876 218.368 262.863 218.329 262.85C217.302 262.432 216.159 262.249 214.961 262.355C214.735 262.377 214.518 262.411 214.296 262.449C213.849 260.228 213.235 258.058 212.459 255.96C212.659 255.845 212.855 255.722 213.047 255.589C216.718 253.019 217.89 247.941 215.669 244.249C214.842 242.876 213.661 241.892 212.314 241.329C210.596 240.6 208.605 240.566 206.742 241.291C206.14 241.525 205.556 241.836 204.994 242.228C204.806 242.361 204.631 242.501 204.457 242.646C203.007 241.043 201.412 239.555 199.694 238.2C199.814 238.003 199.933 237.803 200.04 237.59C202.013 233.706 204.563 229.477 201.498 227.49C201.468 227.469 201.434 227.448 201.4 227.431C201.276 227.358 201.148 227.286 201.02 227.222C192.251 222.937 188.486 226.604 186.419 230.675C186.38 230.752 186.346 230.828 186.312 230.905C186.248 231.041 186.188 231.178 186.133 231.314C184.023 230.726 181.887 230.321 179.734 230.095C179.747 229.869 179.759 229.643 179.755 229.413C179.682 225.742 180.561 223.385 178.514 222.63C178.156 222.498 177.7 222.336 177.137 222.306C177.069 222.302 177.001 222.297 176.933 222.297H176.54C167.259 222.297 164.126 226.271 164.215 230.735C164.22 230.969 164.241 231.229 164.262 231.459C163.115 231.783 161.981 232.171 160.864 232.593C160.86 232.593 160.856 232.598 160.852 232.598C159.867 232.969 158.899 233.382 157.94 233.825C157.842 233.625 157.739 233.433 157.624 233.237C156.797 231.864 155.616 230.884 154.269 230.321C152.854 229.72 151.251 229.592 149.69 229.971C148.748 230.197 147.814 230.611 146.949 231.22C143.278 233.791 142.106 238.869 144.327 242.556C144.442 242.744 144.566 242.923 144.694 243.098C143.253 244.539 141.888 246.095 140.618 247.753C140.456 247.962 140.298 248.171 140.141 248.384C139.957 248.269 139.774 248.158 139.578 248.056C139.429 247.979 139.284 247.911 139.13 247.851C135.451 246.287 131.009 248.06 129.022 251.974C126.954 256.046 128.327 260.897 132.092 262.807C132.283 262.905 132.484 262.986 132.684 263.067C131.985 265.322 131.456 267.59 131.103 269.863C130.889 269.863 130.672 269.867 130.455 269.888C126.161 270.272 122.755 274.211 122.844 278.696C122.887 280.82 123.706 282.683 125.014 284.013C126.468 285.492 128.519 286.424 130.778 286.223C130.966 286.206 131.158 286.247 131.345 286.247C131.35 286.247 131.35 286.247 131.354 286.247C131.384 286.247 131.414 286.13 131.443 286.125C131.448 286.142 131.452 286.103 131.452 286.12C131.456 286.124 131.456 286.102 131.456 286.106C131.904 288.302 132.509 290.429 133.272 292.51C133.272 292.514 133.277 292.516 133.277 292.52C133.081 292.635 132.884 292.752 132.693 292.884C130.582 294.363 129.295 296.642 129.009 299.013C128.796 300.765 129.128 302.567 130.071 304.132C131.793 306.988 136.585 308.842 140.367 307.989C140.371 307.989 140.371 307.989 140.375 307.989C141.249 307.989 142.067 307.687 142.779 307.299C142.856 307.376 142.929 307.482 143.005 307.563C143.014 307.576 143.027 307.589 143.035 307.597C143.602 308.147 144.186 308.689 144.792 309.209C144.822 309.239 144.852 309.264 144.881 309.29C145.261 309.618 145.649 309.938 146.045 310.249C146.041 310.253 146.041 310.258 146.037 310.262C145.921 310.458 145.802 310.663 145.7 310.867C145.291 311.673 145.018 312.509 144.868 313.344C144.651 314.572 144.706 315.804 145.005 316.951C145.227 317.791 145.581 318.588 146.058 319.3C146.344 319.731 146.672 320.127 147.051 320.489C147.546 320.967 148.121 321.436 148.765 321.764C150.185 322.489 151.745 322.485 153.246 322.485C153.25 322.485 153.25 322.485 153.255 322.485C155.723 322.058 158.034 320.379 159.317 317.85C159.428 317.641 159.517 317.335 159.607 317.121C160.69 317.424 161.777 317.795 162.873 317.795H162.877C163.073 317.795 163.269 317.795 163.465 318.221C163.47 318.221 163.47 318.221 163.474 318.221C163.491 318.221 163.512 318.132 163.533 318.132C163.555 318.136 163.576 318.091 163.593 318.096C163.742 318.121 163.896 318.122 164.049 318.144C164.177 318.165 164.309 318.174 164.437 318.191C164.957 318.272 165.428 318.33 165.953 318.385C165.936 318.607 165.878 318.793 165.878 319.014V319.061C165.878 319.115 165.936 319.162 165.939 319.211C165.94 319.252 165.967 319.294 165.971 319.334C165.971 319.377 165.984 319.415 165.988 319.458C166.001 319.654 166.029 319.846 166.055 320.033C166.059 320.093 166.071 320.148 166.079 320.208C166.501 322.868 168.183 324.987 170.459 325.951C170.545 325.989 170.635 326.023 170.729 326.057C170.857 326.104 170.989 326.151 171.126 326.194C171.164 326.211 171.207 326.224 171.25 326.232C172.085 326.471 172.985 326.564 173.918 326.484C174.115 326.466 174.306 326.441 174.494 326.407C174.545 326.398 174.601 326.39 174.652 326.377C178.591 325.639 181.61 321.896 181.524 317.676C181.52 317.518 181.511 317.364 181.499 317.211C181.494 317.164 181.49 317.113 181.486 317.066C181.482 317.04 181.482 317.015 181.477 316.985C183.63 316.371 185.745 315.586 187.8 314.636C187.898 314.836 188 315.036 188.115 315.228C188.167 315.314 188.222 315.399 188.282 315.484C188.474 315.778 188.683 316.055 188.913 316.311C188.917 316.316 188.917 316.316 188.921 316.32C190.064 317.616 191.594 318.409 193.236 318.639C193.977 318.75 194.745 318.741 195.512 318.609C196.638 318.426 197.759 317.978 198.791 317.253C202.291 314.802 203.519 310.07 201.698 306.433C201.651 306.339 201.604 306.246 201.549 306.152C201.506 306.071 201.459 305.99 201.413 305.913C201.297 305.725 201.174 305.546 201.046 305.376C202.67 303.747 204.192 301.982 205.599 300.089C205.782 300.205 205.966 300.315 206.162 300.413C207.121 300.899 208.14 301.147 209.167 301.176C209.666 301.198 210.161 301.164 210.655 301.078C213.124 300.661 215.43 299.028 216.718 296.495C218.781 292.424 217.413 287.577 213.648 285.667C213.456 285.569 213.256 285.483 213.056 285.402C213.755 283.151 214.283 280.879 214.637 278.607C214.851 278.607 215.068 278.603 215.285 278.586ZM141.283 305.828C141.33 305.879 141.377 305.931 141.424 305.982C141.309 305.909 141.249 305.854 141.283 305.828ZM159.279 301.011C145.619 294.074 140.635 276.467 148.143 261.682C151.98 254.127 158.332 248.773 165.452 246.262C170.026 244.654 174.917 244.219 179.657 245.136C181.981 245.579 184.266 246.351 186.462 247.464C187.826 248.159 189.109 248.956 190.294 249.856C190.409 249.937 190.524 250.026 190.639 250.116C191.142 250.504 191.624 250.913 192.093 251.335C192.285 251.51 192.473 251.685 192.66 251.868C192.69 251.894 192.72 251.923 192.75 251.953C192.946 252.141 193.138 252.333 193.325 252.529C193.351 252.554 193.381 252.58 193.402 252.61C193.581 252.793 193.756 252.976 193.926 253.168C193.969 253.215 194.012 253.262 194.054 253.313C194.225 253.501 194.387 253.688 194.545 253.88C194.579 253.914 194.608 253.948 194.634 253.987C194.796 254.175 194.949 254.366 195.099 254.562C195.742 255.377 196.335 256.225 196.876 257.112C197.004 257.312 197.124 257.521 197.243 257.726C197.277 257.781 197.307 257.836 197.337 257.892C197.444 258.071 197.542 258.25 197.635 258.433C197.691 258.527 197.742 258.625 197.793 258.723C197.883 258.894 197.972 259.064 198.053 259.235C198.377 259.883 198.676 260.544 198.948 261.217C199.055 261.473 199.153 261.733 199.251 261.993C199.336 262.228 199.422 262.466 199.503 262.705C199.567 262.88 199.622 263.055 199.677 263.23C199.716 263.349 199.754 263.468 199.788 263.588C199.835 263.728 199.874 263.865 199.912 264.001C199.955 264.142 199.993 264.278 200.027 264.415C200.078 264.577 200.121 264.743 200.159 264.905C200.304 265.468 200.432 266.035 200.543 266.606C200.603 266.921 200.658 267.233 200.709 267.548C200.76 267.851 200.803 268.154 200.841 268.461C200.846 268.499 200.85 268.537 200.854 268.58C200.884 268.797 200.91 269.015 200.931 269.232C200.948 269.386 200.961 269.535 200.973 269.688C200.986 269.812 200.995 269.936 201.003 270.064C201.02 270.251 201.033 270.443 201.042 270.635C201.344 275.972 200.253 281.557 197.597 286.788C195.981 289.973 193.913 292.766 191.535 295.123C191.283 295.37 191.031 295.613 190.776 295.852C190.516 296.091 190.256 296.321 189.991 296.551C189.846 296.675 189.701 296.803 189.552 296.922C189.433 297.024 189.309 297.122 189.185 297.221C188.917 297.438 188.644 297.651 188.367 297.86C185.988 299.655 183.396 301.066 180.689 302.068C180.245 302.23 179.802 302.383 179.354 302.524C178.898 302.669 178.438 302.801 177.973 302.92C177.964 302.925 177.956 302.925 177.947 302.929C177.674 302.997 177.397 303.065 177.12 303.125C176.839 303.193 176.553 303.253 176.268 303.304C174.243 303.701 172.179 303.867 170.12 303.799C169.839 303.79 169.561 303.777 169.284 303.752C169.242 303.752 169.195 303.747 169.152 303.743C165.78 303.509 162.438 302.614 159.279 301.011Z" fill="url(#paint19_linear_7_3775)"/>
<path d="M214.637 278.607C214.284 280.88 213.755 283.152 213.056 285.403C213.256 285.484 213.456 285.569 213.648 285.667C217.413 287.577 218.781 292.425 216.718 296.496C215.43 299.028 213.124 300.661 210.656 301.079C210.161 301.164 209.666 301.198 209.168 301.177C208.14 301.147 207.121 300.9 206.162 300.414C205.966 300.316 205.783 300.205 205.599 300.09C204.192 301.983 202.67 303.748 201.046 305.376C201.174 305.547 201.298 305.726 201.413 305.913C201.46 305.99 201.506 306.071 201.549 306.152C201.605 306.242 201.66 306.336 201.711 306.429C203.783 310.121 205.228 315.459 201.724 317.915C200.662 318.657 199.268 319.053 197.763 319.155C196.288 319.253 194.668 319.07 193.202 318.64C191.522 318.154 190.179 317.352 188.9 316.303V316.09H188.964C188.704 316.09 188.478 315.666 188.282 315.38C188.222 315.295 188.167 315.262 188.116 315.177C188 314.985 187.898 314.811 187.8 314.61C185.745 315.561 183.631 316.358 181.478 316.972C181.482 317.002 181.482 317.034 181.486 317.06C181.49 317.107 181.558 317.161 181.563 317.208C181.576 317.323 181.652 317.437 181.652 317.582V317.676C181.652 322.127 180.846 326.748 176.575 326.748H176.562C174.426 326.868 172.67 326.676 171.25 326.233C171.207 326.224 171.165 326.211 171.126 326.194C170.99 326.152 170.858 326.105 170.73 326.058C170.636 326.023 170.547 325.989 170.461 325.951C167.737 324.834 166.432 322.702 166.083 320.208C166.074 320.149 166.066 320.093 166.061 320.034C166.036 319.812 166.014 319.59 166.002 319.364C166.002 319.356 166.002 319.343 165.998 319.334C165.985 319.219 165.925 319.138 165.921 319.015C165.916 318.784 165.878 318.61 165.878 318.379V318.375C165.452 318.324 164.893 318.256 164.373 318.179C164.245 318.162 164.143 318.141 164.019 318.119C163.866 318.098 163.725 318.17 163.576 318.145C163.542 318.136 163.508 318.222 163.474 318.222C163.469 318.222 163.469 318.222 163.465 318.222C163.269 317.795 163.073 317.795 162.877 317.795H162.873C164.522 314.385 166.245 311.04 167.699 307.557C168.231 306.278 168.858 305.009 169.285 303.721C169.289 303.717 169.289 303.732 169.289 303.728C169.289 303.745 169.745 303.766 170.052 303.779C170.082 303.783 170.107 303.787 170.133 303.787C172.196 303.859 174.243 303.695 176.268 303.302C176.553 303.247 176.835 303.189 177.12 303.124C177.397 303.065 177.674 302.997 177.947 302.929C177.956 302.925 177.964 302.925 177.973 302.92C178.438 302.801 178.898 302.669 179.354 302.524C179.802 302.384 180.245 302.234 180.689 302.068C183.404 301.075 185.997 299.659 188.384 297.86C188.661 297.652 188.925 297.438 189.194 297.221C189.318 297.123 189.437 297.025 189.552 296.922C189.701 296.803 189.846 296.675 189.991 296.552C190.256 296.321 190.516 296.091 190.776 295.852C191.031 295.614 191.283 295.371 191.535 295.123C193.913 292.766 195.981 289.973 197.597 286.789C200.253 281.558 201.344 275.973 201.042 270.635C201.033 270.443 201.02 270.252 201.003 270.064C200.995 269.936 200.986 269.812 200.973 269.689C200.961 269.535 200.948 269.386 200.931 269.233C200.91 269.015 200.884 268.798 200.854 268.58C200.85 268.538 200.846 268.499 200.841 268.461C200.803 268.154 200.76 267.851 200.709 267.549C200.658 267.233 200.603 266.922 200.543 266.606C200.432 266.035 200.304 265.468 200.159 264.905C200.121 264.743 200.078 264.577 200.027 264.415C199.993 264.279 199.955 264.142 199.912 264.002C199.874 263.865 199.835 263.729 199.788 263.588C199.754 263.469 199.716 263.349 199.678 263.23C199.622 263.055 199.567 262.88 199.503 262.706C199.422 262.467 199.336 262.228 199.251 261.993C199.153 261.733 199.055 261.473 198.948 261.218C198.676 260.544 198.377 259.883 198.053 259.235C197.972 259.065 197.883 258.894 197.793 258.724C197.742 258.626 197.691 258.528 197.636 258.434C197.542 258.251 197.444 258.071 197.337 257.892C197.307 257.837 197.277 257.782 197.243 257.726C197.124 257.521 197.004 257.313 196.877 257.112C196.335 256.225 195.742 255.377 195.099 254.563C194.95 254.367 194.796 254.175 194.634 253.987C194.609 253.949 194.579 253.915 194.545 253.881C194.387 253.689 194.225 253.501 194.054 253.314C194.012 253.262 193.969 253.216 193.926 253.169C193.756 252.977 193.581 252.793 193.402 252.61C193.381 252.58 193.351 252.555 193.325 252.529C193.138 252.333 192.946 252.141 192.75 251.954C192.72 251.924 192.69 251.894 192.66 251.868C192.473 251.685 192.285 251.51 192.093 251.335C191.624 250.913 191.142 250.504 190.64 250.116C190.524 250.027 190.409 249.937 190.294 249.856C190.209 249.788 190.128 249.724 190.043 249.664C190.324 249.153 190.605 248.637 190.887 248.125C194.05 242.34 197.265 236.589 200.522 230.855C201.264 232.931 201.166 235.374 200.04 237.591C199.933 237.804 199.814 238.004 199.695 238.2C201.413 239.556 203.007 241.044 204.457 242.647C204.632 242.502 204.806 242.361 204.994 242.229C205.506 241.871 206.047 241.504 206.61 241.163C210.08 239.049 214.442 237.74 218.671 243.363C221.258 246.804 216.718 253.02 213.047 255.59C212.855 255.722 212.659 255.846 212.459 255.961C213.235 258.059 213.849 260.229 214.296 262.45C214.518 262.412 214.736 262.373 214.962 262.356C216.159 262.25 217.302 262.433 218.33 262.851C218.368 262.864 218.402 262.876 218.44 262.893C221.02 263.993 222.831 266.594 222.896 269.779C222.985 274.259 219.579 278.203 215.286 278.587C215.068 278.603 214.851 278.607 214.637 278.607Z" fill="url(#paint20_linear_7_3775)"/>
<path d="M219.331 279.042C223.625 278.662 227.031 274.719 226.937 270.238C226.847 265.753 223.296 262.432 219.007 262.816C218.815 262.829 218.628 262.859 218.44 262.893C218.406 262.897 218.376 262.905 218.342 262.91C218.338 262.888 218.334 262.871 218.33 262.85C217.882 260.65 217.272 258.501 216.505 256.417C216.705 256.302 216.901 256.182 217.093 256.05C220.764 253.479 221.936 248.402 219.715 244.71C219.412 244.211 219.063 243.759 218.671 243.362C217.012 241.661 214.65 240.937 212.314 241.329C211.189 241.517 210.072 241.968 209.04 242.689C208.852 242.817 208.677 242.962 208.498 243.107C207.935 242.484 207.347 241.875 206.742 241.291C206.699 241.244 206.652 241.201 206.61 241.163C205.697 240.284 204.742 239.449 203.74 238.66C203.86 238.464 203.979 238.264 204.086 238.05C206.064 234.158 204.896 229.549 201.498 227.49C201.468 227.469 201.434 227.448 201.4 227.431C201.276 227.358 201.148 227.286 201.021 227.222C197.26 225.312 192.532 227.064 190.465 231.135C190.358 231.349 190.268 231.562 190.179 231.775C188.9 231.417 187.608 231.127 186.312 230.905C185.468 230.76 184.624 230.641 183.78 230.556C183.793 230.329 183.805 230.099 183.801 229.873C183.729 226.352 181.533 223.483 178.515 222.63C178.071 222.498 177.611 222.344 177.138 222.306C177.069 222.302 177.001 222.298 176.933 222.298H176.911C176.788 222.298 176.664 222.357 176.54 222.357C176.319 222.357 176.093 222.396 175.867 222.417C171.578 222.796 168.172 226.757 168.261 231.238C168.266 231.472 168.283 231.711 168.308 231.937C166.155 232.551 164.04 233.339 161.986 234.29C161.888 234.09 161.785 233.894 161.67 233.702C161.431 233.305 161.163 232.943 160.865 232.61C160.86 232.606 160.856 232.602 160.852 232.598C159.185 230.722 156.716 229.908 154.269 230.321C153.357 230.47 152.449 230.794 151.592 231.297C151.392 231.412 151.191 231.54 150.995 231.677C147.324 234.252 146.152 239.325 148.373 243.017C148.488 243.205 148.612 243.384 148.74 243.559C147.116 245.183 145.589 246.948 144.182 248.841C144.003 248.73 143.816 248.619 143.624 248.517C142.665 248.031 141.646 247.783 140.618 247.754C140.124 247.732 139.625 247.766 139.13 247.852C136.662 248.269 134.351 249.906 133.068 252.435C131 256.506 132.373 261.358 136.133 263.268C136.329 263.366 136.53 263.447 136.73 263.528C136.031 265.779 135.502 268.051 135.148 270.323C134.935 270.323 134.718 270.328 134.496 270.349C130.207 270.728 126.801 274.672 126.89 279.157C126.955 282.337 128.758 284.934 131.337 286.034C131.342 286.034 131.342 286.121 131.346 286.121C131.384 286.138 131.418 286.247 131.456 286.247H131.461C132.488 286.673 133.622 286.765 134.825 286.658C135.046 286.641 135.268 286.565 135.485 286.523C135.933 288.744 136.551 290.893 137.323 292.995C137.127 293.11 136.931 293.219 136.739 293.351C133.068 295.926 131.891 300.905 134.117 304.597C135.502 306.895 137.881 307.99 140.367 307.99C140.371 307.99 140.371 307.99 140.375 307.99C141.254 307.99 142.14 307.896 143.006 307.563C143.014 307.563 143.027 307.559 143.035 307.555C143.637 307.325 144.225 307.056 144.788 306.664C144.979 306.532 145.154 306.408 145.329 306.263C146.779 307.866 148.369 309.362 150.091 310.718C149.968 310.914 149.852 311.127 149.746 311.336C147.678 315.408 149.051 320.259 152.811 322.169C152.952 322.242 153.101 322.31 153.246 322.374C153.25 322.374 153.25 322.378 153.254 322.378C156.934 323.943 161.376 322.169 163.363 318.256C163.401 318.179 163.44 318.102 163.473 318.025C163.537 317.889 163.597 317.753 163.653 317.616C165.763 318.204 167.899 318.614 170.048 318.835C170.035 319.066 170.026 319.291 170.031 319.522C170.094 322.706 171.906 325.213 174.494 326.313C174.545 326.334 174.601 326.356 174.652 326.377C175.253 326.612 175.893 326.748 176.562 326.748H176.575C177.027 327.174 177.491 326.893 177.965 326.85C178.229 326.825 178.489 326.791 178.749 326.739C182.479 326.019 185.329 322.63 185.521 318.673C185.53 318.499 185.489 318.32 185.489 318.136V318.089C185.489 317.863 185.489 317.659 185.489 317.446V317.424C186.768 317.096 187.779 316.734 188.896 316.312C188.9 316.312 188.908 316.203 188.912 316.203C188.925 316.198 188.947 316.516 188.964 316.09H188.968C189.936 316.09 190.895 315.427 191.846 314.988C191.944 315.188 192.046 315.445 192.161 315.637C192.988 317.01 194.165 318.021 195.512 318.583C196.224 318.89 196.983 319.082 197.763 319.142C199.464 319.27 201.25 318.816 202.832 317.708C203.808 317.026 204.606 316.168 205.207 315.204C206.712 312.821 207.032 309.808 205.915 307.259C205.782 306.956 205.629 306.663 205.454 306.373C205.343 306.185 205.215 306.007 205.092 305.832C205.126 305.798 205.164 305.76 205.194 305.726C206.601 304.314 207.927 302.793 209.167 301.177C209.329 300.972 209.487 300.759 209.645 300.55C209.828 300.665 210.012 300.776 210.208 300.874C210.357 300.951 210.502 301.019 210.655 301.079C214.335 302.643 218.773 300.874 220.759 296.956C222.827 292.885 221.454 288.037 217.694 286.127C217.498 286.025 217.302 285.944 217.101 285.863C217.801 283.612 218.325 281.34 218.679 279.067C218.896 279.067 219.114 279.063 219.331 279.042ZM170.12 303.799C170.103 303.799 170.082 303.795 170.065 303.79C170.06 303.79 170.056 303.79 170.052 303.786C167.754 303.338 165.494 302.575 163.32 301.467C149.665 294.535 144.681 276.927 152.189 262.142C155.437 255.743 160.494 250.921 166.291 248.073C170.491 246.006 175.082 244.978 179.657 245.136C183.357 245.26 187.045 246.163 190.507 247.924C190.635 247.988 190.763 248.056 190.887 248.125C204.256 255.185 209.078 272.6 201.638 287.249C196.962 296.457 188.542 302.405 179.555 303.901C176.434 304.421 173.245 304.404 170.12 303.799Z" fill="url(#paint21_linear_7_3775)"/>
<path opacity="0.3" d="M205.207 315.207C204.606 316.171 203.808 317.032 202.832 317.714C201.25 318.823 199.464 319.283 197.763 319.155C196.288 319.253 194.702 319.07 193.235 318.639C191.594 318.409 190.064 317.616 188.921 316.32C187.8 316.747 186.67 317.118 185.523 317.446C185.544 317.672 185.566 317.902 185.57 318.136C185.574 318.32 185.57 318.499 185.561 318.673C185.391 322.651 182.492 326.019 178.749 326.74C178.489 326.791 178.229 326.825 177.964 326.85C177.491 326.893 177.026 327.174 176.574 326.748H176.562C174.426 326.867 172.669 326.676 171.25 326.232C171.207 326.224 171.164 326.211 171.126 326.194C170.99 326.151 170.857 326.104 170.729 326.057C170.636 326.023 170.546 325.989 170.461 325.951C167.737 324.834 166.432 322.702 166.082 320.208C166.074 320.148 166.065 320.093 166.061 320.033C166.036 319.812 165.961 319.59 165.948 319.364C165.94 319.249 165.878 319.168 165.878 319.061V319.014C165.878 318.793 165.878 318.601 165.878 318.379V318.358C165.451 318.302 164.893 318.247 164.373 318.166C164.245 318.149 164.145 318.136 164.017 318.115C163.863 318.094 163.726 318.068 163.577 318.042C163.56 318.038 163.546 318.034 163.525 318.034C163.504 318.034 163.486 318.03 163.469 318.025C163.435 318.102 163.399 318.179 163.36 318.256C161.374 322.169 156.932 323.943 153.253 322.378C151.748 322.634 150.189 322.438 148.764 321.713C148.121 321.385 147.546 320.971 147.051 320.49C146.672 320.127 146.343 319.731 146.058 319.3C145.576 318.588 145.222 317.795 145.005 316.951C144.706 315.804 144.651 314.572 144.868 313.344C145.018 312.513 145.295 311.682 145.7 310.88C145.806 310.671 145.926 310.471 146.045 310.271C146.041 310.266 146.041 310.266 146.037 310.262C145.644 309.955 145.261 309.627 144.881 309.29C144.852 309.265 144.822 309.239 144.792 309.209C144.186 308.668 143.602 308.105 143.035 307.555C143.027 307.559 143.014 307.563 143.005 307.563C142.14 307.896 141.253 307.99 140.375 307.99C140.371 307.99 140.371 307.99 140.367 307.99C136.585 308.842 131.793 306.988 130.071 304.131C129.128 302.567 128.796 300.763 129.009 299.011C129.291 296.62 130.578 294.322 132.693 292.838C132.884 292.706 133.076 292.608 133.272 292.497C133.272 292.492 133.277 292.492 133.277 292.492C132.514 290.412 131.908 288.366 131.461 286.17C131.456 286.166 131.456 286.247 131.456 286.247H131.452C131.418 286.247 131.388 286.247 131.354 286.234C131.35 286.234 131.35 286.247 131.345 286.247C131.341 286.247 131.341 286.247 131.337 286.247C131.153 286.247 130.962 286.204 130.778 286.221C128.519 286.422 126.468 285.545 125.014 284.066C123.706 282.736 122.887 280.846 122.844 278.723C122.755 274.238 126.161 270.286 130.455 269.902C130.672 269.881 130.889 269.87 131.102 269.87C131.456 267.597 131.985 265.326 132.684 263.071C132.484 262.99 132.283 262.907 132.092 262.809C128.327 260.899 126.954 256.046 129.022 251.975C131.009 248.061 135.451 246.288 139.13 247.852C139.625 247.767 140.124 247.733 140.618 247.754C141.888 246.096 143.253 244.539 144.694 243.098C144.566 242.923 144.442 242.744 144.327 242.557C142.106 238.869 143.278 233.791 146.949 231.221C147.814 230.611 148.748 230.198 149.69 229.972C150.304 230.385 150.939 230.828 151.592 231.297C156.49 234.849 162.229 239.986 165.452 246.262C165.75 246.854 166.036 247.46 166.292 248.073C160.494 250.921 155.437 255.743 152.189 262.142C144.681 276.927 149.665 294.535 163.32 301.467C165.495 302.575 167.754 303.338 170.052 303.786C170.082 303.79 170.107 303.79 170.133 303.79C172.196 303.863 174.243 303.697 176.268 303.304C176.553 303.249 176.835 303.189 177.12 303.125C177.397 303.066 177.675 302.997 177.947 302.929C178.463 303.27 179.001 303.599 179.555 303.901C184.956 306.886 192.191 308.067 201.698 306.434C201.703 306.434 201.707 306.434 201.711 306.429C202.841 306.238 204 306.003 205.194 305.726C205.211 305.726 205.224 305.722 205.241 305.717C205.514 306.233 205.74 306.749 205.915 307.261C206.844 309.985 206.422 312.675 205.207 315.207Z" fill="white"/>
<path d="M68.9104 343.604C68.8067 343.572 68.5985 343.509 68.336 343.541C68.0039 343.583 67.774 343.754 67.6423 343.855C67.5182 343.951 66.4988 344.755 66.5104 345.859C66.5196 346.742 67.1787 346.797 67.8337 348.269C68.3666 349.467 68.0616 349.726 68.5464 350.343C69.3564 351.375 71.1329 351.831 71.8982 351.152C72.2554 350.835 72.3027 350.351 72.3153 350.222C72.4327 349.019 71.1803 348.676 70.9056 347.324C70.63 345.968 71.6927 345.338 71.1828 344.569C70.9758 344.256 70.2873 344.039 68.9104 343.604Z" fill="url(#paint22_linear_7_3775)"/>
<path d="M69.9031 341.53C68.7679 342.575 68.2737 343.736 68.6301 344.33C68.7629 344.551 69.0087 344.686 69.1178 344.746C69.8792 345.164 70.69 344.858 70.844 344.796L72.3068 342.741L69.9031 341.53Z" fill="url(#paint23_linear_7_3775)"/>
<path d="M41.0604 349.493C40.6947 349.365 40.2934 349.444 40.0038 349.702C39.5559 350.1 38.9061 350.723 38.5605 351.262C37.9994 352.137 40.1349 352.556 42.3436 353.016C44.5523 353.476 47.2874 354.2 47.2058 353.534C47.1243 352.867 46.4903 351.854 44.355 350.77C43.7891 350.482 41.9958 349.822 41.0604 349.493Z" fill="url(#paint24_linear_7_3775)"/>
<path d="M41.2813 347.049L40.3574 349.977C40.3574 349.977 40.8593 350.928 42.1919 350.367L43.7304 347.812L41.2813 347.049Z" fill="url(#paint25_linear_7_3775)"/>
<path d="M123.694 221.204C123.696 221.212 119.327 227.496 115.143 228.728L126.175 230.521C126.175 230.521 124.736 230.036 124.736 228.014C124.736 226.754 125.717 223.725 125.717 223.725L123.694 221.204Z" fill="url(#paint26_linear_7_3775)"/>
<path d="M100.021 285.57C101.141 289.913 102.606 296.295 103.742 304.15C105.713 317.776 104.506 320.704 103.87 321.982C101.507 326.731 97.5933 327.649 87.7339 333.536C80.699 337.736 75.33 341.664 71.9814 344.248C71.4847 344.168 70.7148 343.983 69.8874 343.507C69.1503 343.083 68.6424 342.586 68.3281 342.226C69.2313 337.846 70.9102 334.94 72.2177 333.142C73.7672 331.012 75.1415 329.962 81.8268 324.636C86.5734 320.854 88.9493 318.958 89.0728 318.729C93.1353 311.183 80.0306 301.17 83.0081 293.324C84.1229 290.386 87.8149 286.901 100.021 285.57Z" fill="url(#paint27_linear_7_3775)"/>
<path opacity="0.3" d="M72.2177 333.142C73.7672 331.012 75.1415 329.962 81.8268 324.636C86.5734 320.854 88.9493 318.958 89.0728 318.729C93.1353 311.183 80.0305 301.17 83.0081 293.324C84.1229 290.386 87.8149 286.901 100.021 285.57C100.589 287.772 101.245 290.501 101.903 293.677C97.4199 295.982 96.034 298.276 95.7678 300.141C95.1338 304.581 100.652 307.677 99.3121 311.483C98.2248 314.571 94.0042 314.2 93.1686 317.39C92.3583 320.483 95.9559 322.247 95.2951 324.715C94.2154 328.746 83.9516 326.502 78.5187 331.803C76.7708 333.509 75.045 336.474 74.9187 342.036C73.8142 342.848 72.8314 343.592 71.9814 344.248C71.4847 344.168 70.7148 343.983 69.8874 343.507C69.1503 343.083 68.6424 342.586 68.3281 342.226C69.2313 337.846 70.9102 334.94 72.2177 333.142Z" fill="url(#paint28_linear_7_3775)"/>
<path d="M102.265 287.145C98.625 289.638 93.5585 293.251 87.7338 297.896C79.348 304.582 70.3292 311.773 61.3167 322.55C56.4263 328.398 50.0458 337.085 44.2237 348.886C43.8128 348.972 43.0375 349.077 42.1167 348.839C41.0141 348.555 40.3082 347.937 40.0037 347.634C38.9472 338.939 40.4977 332.834 42.0121 328.968C45.382 320.363 49.2673 321.07 55.953 308.529C57.7644 305.131 59.815 300.698 64.1763 293.031C65.8437 290.1 67.114 287.988 69.1851 285.609C72.4896 281.812 76.0124 279.424 78.5406 277.982C86.4489 281.037 94.3572 284.091 102.265 287.145Z" fill="url(#paint29_linear_7_3775)"/>
<path d="M127.486 218.982C127.834 217.838 127.015 216.118 125.668 215.62C124.667 215.25 123.73 215.685 123.047 216.002C122.731 216.149 120.517 217.209 120.404 219.069C120.369 219.66 120.616 220.37 121.001 220.873C121.2 221.131 121.525 221.43 122.215 221.979C122.827 222.466 122.792 222.454 122.976 222.593C123.42 222.928 124.244 223.469 125.608 223.974C125.575 223.642 125.557 223.224 125.593 222.75C125.608 222.568 125.67 221.854 125.912 221.195C126.403 219.858 127.214 219.876 127.486 218.982Z" fill="url(#paint30_linear_7_3775)"/>
<path d="M123.938 223.577C123.938 223.577 125.607 224.95 127.674 224.076C129.525 223.294 128.325 218.951 126.802 218.471C126.293 218.311 125.442 218.467 124.849 218.88C124.499 219.124 124.423 219.331 123.843 219.718C123.308 220.075 123.12 220.068 122.994 220.279C122.837 220.543 122.834 221.058 123.637 222.17C123.148 221.93 122.665 221.941 122.409 222.192C122.368 222.233 122.269 222.366 122.242 222.526C122.146 223.103 122.804 223.568 123.938 223.577Z" fill="url(#paint31_linear_7_3775)"/>
<path d="M169.563 225.863L172.159 223.195C172.159 223.195 175.396 221.615 177.759 222.796C180.122 223.977 178.059 223.814 176.846 223.975C175.633 224.135 173.809 225.228 172.633 225.863C171.458 226.498 170.198 227.345 170.198 227.345L169.563 225.863Z" fill="url(#paint32_linear_7_3775)"/>
<path d="M169.332 224.371C170.172 225.421 171.012 226.472 171.852 227.522C169.551 235.364 165.861 239.675 162.873 242.171C153.323 250.152 143.41 245.898 130.731 255.521C126.819 258.491 124.352 261.485 122.3 263.976C113.044 275.211 113.624 282.483 105.652 287.055C101.262 289.572 97.0377 289.689 94.2726 289.765C86.3865 289.984 75.6501 286.926 73.9634 280.625C73.6423 279.425 73.7359 278.433 73.793 277.93C75.3375 264.306 91.4656 245.623 97.973 238.312C102.512 233.213 106.425 229.094 112.465 228.073C114.995 227.646 117.04 227.92 121.129 228.467C128.565 229.462 130.884 231.128 137.412 232.501C141.817 233.428 146.736 234.462 152.187 233.637C155.403 233.15 162.192 231.503 169.332 224.371Z" fill="url(#paint33_linear_7_3775)"/>
<path opacity="0.3" d="M90.8057 282.183C93.2754 276.973 90.4875 273.065 93.6412 269.187C97.453 264.501 103.125 268.244 108.764 263.752C115.311 258.537 112.621 249.538 118.215 247.449C121.73 246.136 123.319 249.491 128.612 248.63C134.337 247.699 134.45 243.451 140.19 241.542C146.427 239.466 149.352 243.465 157.675 242.959C159.334 242.858 161.13 242.567 163.034 242.033C162.981 242.079 162.926 242.128 162.874 242.171C153.323 250.152 143.41 245.898 130.732 255.521C126.819 258.491 124.353 261.485 122.3 263.976C113.045 275.211 113.625 282.483 105.652 287.055C101.262 289.572 97.0381 289.689 94.273 289.765C91.2014 289.85 87.7015 289.432 84.4683 288.524C87.9689 286.554 89.8116 284.28 90.8057 282.183Z" fill="url(#paint34_linear_7_3775)"/>
</g>
<defs>
<linearGradient id="paint0_linear_7_3775" x1="519.126" y1="254.815" x2="137.557" y2="155.084" gradientUnits="userSpaceOnUse">
<stop offset="0.1" stop-color="#311944"/>
<stop offset="0.2658" stop-color="#371B47"/>
<stop offset="0.477" stop-color="#462150"/>
<stop offset="0.515" stop-color="#4A2252"/>
<stop offset="0.6806" stop-color="#5C295C"/>
<stop offset="1" stop-color="#893976"/>
</linearGradient>
<linearGradient id="paint1_linear_7_3775" x1="500.675" y1="249.7" x2="119.096" y2="149.967" gradientUnits="userSpaceOnUse">
<stop offset="0.1" stop-color="#311944"/>
<stop offset="0.267" stop-color="#371B47"/>
<stop offset="0.4803" stop-color="#462150"/>
<stop offset="0.7186" stop-color="#612A5F"/>
<stop offset="0.9736" stop-color="#853774"/>
<stop offset="1" stop-color="#893976"/>
</linearGradient>
<linearGradient id="paint2_linear_7_3775" x1="-1.70219" y1="89.7846" x2="282.757" y2="217.329" gradientUnits="userSpaceOnUse">
<stop stop-color="#AA80F9"/>
<stop offset="0.9964" stop-color="#6165D7"/>
</linearGradient>
<linearGradient id="paint3_linear_7_3775" x1="635.903" y1="224.927" x2="232.504" y2="138.276" gradientUnits="userSpaceOnUse">
<stop offset="0.1" stop-color="#311944"/>
<stop offset="0.267" stop-color="#371B47"/>
<stop offset="0.4803" stop-color="#462150"/>
<stop offset="0.7186" stop-color="#612A5F"/>
<stop offset="0.9736" stop-color="#853774"/>
<stop offset="1" stop-color="#893976"/>
</linearGradient>
<linearGradient id="paint4_linear_7_3775" x1="635.999" y1="224.439" x2="232.611" y2="137.79" gradientUnits="userSpaceOnUse">
<stop offset="0.1" stop-color="#311944"/>
<stop offset="0.267" stop-color="#371B47"/>
<stop offset="0.4803" stop-color="#462150"/>
<stop offset="0.7186" stop-color="#612A5F"/>
<stop offset="0.9736" stop-color="#853774"/>
<stop offset="1" stop-color="#893976"/>
</linearGradient>
<linearGradient id="paint5_linear_7_3775" x1="229.242" y1="127.106" x2="532.431" y2="247.304" gradientUnits="userSpaceOnUse">
<stop stop-color="#AA80F9"/>
<stop offset="0.9964" stop-color="#6165D7"/>
</linearGradient>
<linearGradient id="paint6_linear_7_3775" x1="332.842" y1="190.244" x2="334.943" y2="219.367" gradientUnits="userSpaceOnUse">
<stop stop-color="#FFC444"/>
<stop offset="0.9964" stop-color="#F36F56"/>
</linearGradient>
<linearGradient id="paint7_linear_7_3775" x1="229.924" y1="197.615" x2="232.07" y2="227.352" gradientUnits="userSpaceOnUse">
<stop stop-color="#FFC444"/>
<stop offset="0.9964" stop-color="#F36F56"/>
</linearGradient>
<linearGradient id="paint8_linear_7_3775" x1="304.354" y1="334.694" x2="309.352" y2="353.759" gradientUnits="userSpaceOnUse">
<stop stop-color="#FFC444"/>
<stop offset="0.9964" stop-color="#F36F56"/>
</linearGradient>
<linearGradient id="paint9_linear_7_3775" x1="296.145" y1="336.913" x2="301.106" y2="355.837" gradientUnits="userSpaceOnUse">
<stop stop-color="#FFC444"/>
<stop offset="0.9964" stop-color="#F36F56"/>
</linearGradient>
<linearGradient id="paint10_linear_7_3775" x1="322.285" y1="326.309" x2="295.13" y2="291.159" gradientUnits="userSpaceOnUse">
<stop stop-color="#444B8C"/>
<stop offset="0.9964" stop-color="#3E4177"/>
</linearGradient>
<linearGradient id="paint11_linear_7_3775" x1="322.285" y1="326.309" x2="295.129" y2="291.159" gradientUnits="userSpaceOnUse">
<stop stop-color="#444B8C"/>
<stop offset="0.9964" stop-color="#3E4177"/>
</linearGradient>
<linearGradient id="paint12_linear_7_3775" x1="286.589" y1="304.901" x2="243.721" y2="293.864" gradientUnits="userSpaceOnUse">
<stop stop-color="#444B8C"/>
<stop offset="0.9964" stop-color="#3E4177"/>
</linearGradient>
<linearGradient id="paint13_linear_7_3775" x1="274.92" y1="169.147" x2="295.222" y2="270.252" gradientUnits="userSpaceOnUse">
<stop stop-color="#FF9085"/>
<stop offset="1" stop-color="#FB6FBB"/>
</linearGradient>
<linearGradient id="paint14_linear_7_3775" x1="284.68" y1="208.282" x2="288.587" y2="223.021" gradientUnits="userSpaceOnUse">
<stop stop-color="#FFC444"/>
<stop offset="0.9964" stop-color="#F36F56"/>
</linearGradient>
<linearGradient id="paint15_linear_7_3775" x1="334.071" y1="391.557" x2="337.978" y2="406.295" gradientUnits="userSpaceOnUse">
<stop stop-color="#FFC444"/>
<stop offset="0.9964" stop-color="#F36F56"/>
</linearGradient>
<linearGradient id="paint16_linear_7_3775" x1="433.486" y1="485.921" x2="444.692" y2="507.053" gradientUnits="userSpaceOnUse">
<stop stop-color="#FFC444"/>
<stop offset="0.9964" stop-color="#F36F56"/>
</linearGradient>
<linearGradient id="paint17_linear_7_3775" x1="255.511" y1="173.043" x2="275.813" y2="274.149" gradientUnits="userSpaceOnUse">
<stop stop-color="#FF9085"/>
<stop offset="1" stop-color="#FB6FBB"/>
</linearGradient>
<linearGradient id="paint18_linear_7_3775" x1="166.935" y1="261.837" x2="130.194" y2="250.375" gradientUnits="userSpaceOnUse">
<stop stop-color="#FFC444"/>
<stop offset="0.9964" stop-color="#F36F56"/>
</linearGradient>
<linearGradient id="paint19_linear_7_3775" x1="367.946" y1="432.177" x2="179.506" y2="278.27" gradientUnits="userSpaceOnUse">
<stop offset="0.1" stop-color="#311944"/>
<stop offset="0.267" stop-color="#371B47"/>
<stop offset="0.4803" stop-color="#462150"/>
<stop offset="0.7186" stop-color="#612A5F"/>
<stop offset="0.9736" stop-color="#853774"/>
<stop offset="1" stop-color="#893976"/>
</linearGradient>
<linearGradient id="paint20_linear_7_3775" x1="370.862" y1="428.602" x2="182.425" y2="274.697" gradientUnits="userSpaceOnUse">
<stop offset="0.1" stop-color="#311944"/>
<stop offset="0.267" stop-color="#371B47"/>
<stop offset="0.4803" stop-color="#462150"/>
<stop offset="0.7186" stop-color="#612A5F"/>
<stop offset="0.9736" stop-color="#853774"/>
<stop offset="1" stop-color="#893976"/>
</linearGradient>
<linearGradient id="paint21_linear_7_3775" x1="4.54097" y1="166.761" x2="326.996" y2="368.672" gradientUnits="userSpaceOnUse">
<stop stop-color="#AA80F9"/>
<stop offset="0.9964" stop-color="#6165D7"/>
</linearGradient>
<linearGradient id="paint22_linear_7_3775" x1="75.6921" y1="382.357" x2="69.1706" y2="346.61" gradientUnits="userSpaceOnUse">
<stop stop-color="#311944"/>
<stop offset="1" stop-color="#893976"/>
</linearGradient>
<linearGradient id="paint23_linear_7_3775" x1="69.2426" y1="354.612" x2="67.6622" y2="369.942" gradientUnits="userSpaceOnUse">
<stop stop-color="#FFC444"/>
<stop offset="0.9964" stop-color="#F36F56"/>
</linearGradient>
<linearGradient id="paint24_linear_7_3775" x1="46.8218" y1="374.383" x2="42.5687" y2="351.07" gradientUnits="userSpaceOnUse">
<stop stop-color="#311944"/>
<stop offset="1" stop-color="#893976"/>
</linearGradient>
<linearGradient id="paint25_linear_7_3775" x1="41.6975" y1="352.254" x2="40.1222" y2="367.534" gradientUnits="userSpaceOnUse">
<stop stop-color="#FFC444"/>
<stop offset="0.9964" stop-color="#F36F56"/>
</linearGradient>
<linearGradient id="paint26_linear_7_3775" x1="117.405" y1="237.889" x2="123.548" y2="222.286" gradientUnits="userSpaceOnUse">
<stop stop-color="#FFC444"/>
<stop offset="0.9964" stop-color="#F36F56"/>
</linearGradient>
<linearGradient id="paint27_linear_7_3775" x1="104.255" y1="338.199" x2="39.04" y2="259.279" gradientUnits="userSpaceOnUse">
<stop stop-color="#444B8C"/>
<stop offset="0.9964" stop-color="#26264F"/>
</linearGradient>
<linearGradient id="paint28_linear_7_3775" x1="104.255" y1="338.199" x2="39.0398" y2="259.278" gradientUnits="userSpaceOnUse">
<stop stop-color="#444B8C"/>
<stop offset="0.9964" stop-color="#26264F"/>
</linearGradient>
<linearGradient id="paint29_linear_7_3775" x1="71.3035" y1="317.618" x2="39.6409" y2="274.85" gradientUnits="userSpaceOnUse">
<stop stop-color="#444B8C"/>
<stop offset="0.9964" stop-color="#26264F"/>
</linearGradient>
<linearGradient id="paint30_linear_7_3775" x1="123.563" y1="230.332" x2="124.073" y2="216.334" gradientUnits="userSpaceOnUse">
<stop stop-color="#311944"/>
<stop offset="1" stop-color="#893976"/>
</linearGradient>
<linearGradient id="paint31_linear_7_3775" x1="134.353" y1="223.561" x2="119.007" y2="219.48" gradientUnits="userSpaceOnUse">
<stop stop-color="#FFC444"/>
<stop offset="0.9964" stop-color="#F36F56"/>
</linearGradient>
<linearGradient id="paint32_linear_7_3775" x1="189.818" y1="212.596" x2="161.7" y2="233.862" gradientUnits="userSpaceOnUse">
<stop stop-color="#FFC444"/>
<stop offset="0.8142" stop-color="#F57F53"/>
<stop offset="0.9964" stop-color="#F36F56"/>
</linearGradient>
<linearGradient id="paint33_linear_7_3775" x1="125.444" y1="241.271" x2="109.691" y2="308.061" gradientUnits="userSpaceOnUse">
<stop stop-color="#FFC444"/>
<stop offset="0.9964" stop-color="#F36F56"/>
</linearGradient>
<linearGradient id="paint34_linear_7_3775" x1="129.204" y1="242.157" x2="113.452" y2="308.948" gradientUnits="userSpaceOnUse">
<stop stop-color="#FFC444"/>
<stop offset="0.9964" stop-color="#F36F56"/>
</linearGradient>
<clipPath id="clip0_7_3775">
<rect width="400" height="400" fill="white"/>
</clipPath>
</defs>
</svg>
